<svg version="1.1" xmlns="http://www.w3.org/2000/svg" viewBox="0 0 1412.8058776855469 519.1604552441421" width="2825.6117553710938" height="1038.3209104882842">
  <!-- svg-source:excalidraw -->
  
  <defs>
    <style>
      @font-face {
        font-family: "Virgil";
        src: url("https://excalidraw.com/Virgil.woff2");
      }
      @font-face {
        font-family: "Cascadia";
        src: url("https://excalidraw.com/Cascadia.woff2");
      }
    </style>
  </defs>
  <rect x="0" y="0" width="1412.8058776855469" height="519.1604552441421" fill="#ffffff"></rect><g stroke-linecap="round" transform="translate(208.22879855330808 97.79244174497094) rotate(373.2506353863734 19.801025618647287 20.476060582919345)"><path d="M19.8 0 C23.83 -0.26, 29.28 1.97, 32.53 4.79 C35.78 7.61, 38.56 12.6, 39.3 16.92 C40.04 21.24, 39.07 26.91, 36.95 30.71 C34.83 34.51, 30.56 38.22, 26.57 39.72 C22.59 41.22, 17.02 41.22, 13.03 39.72 C9.04 38.22, 4.77 34.51, 2.65 30.71 C0.53 26.91, -0.44 21.24, 0.3 16.92 C1.04 12.6, 3.82 7.61, 7.07 4.79 C10.32 1.97, 17.68 0.73, 19.8 0 C21.92 -0.73, 19.8 0.07, 19.8 0.41 M19.8 0 C23.83 -0.26, 29.28 1.97, 32.53 4.79 C35.78 7.61, 38.56 12.6, 39.3 16.92 C40.04 21.24, 39.07 26.91, 36.95 30.71 C34.83 34.51, 30.56 38.22, 26.57 39.72 C22.59 41.22, 17.02 41.22, 13.03 39.72 C9.04 38.22, 4.77 34.51, 2.65 30.71 C0.53 26.91, -0.44 21.24, 0.3 16.92 C1.04 12.6, 3.82 7.61, 7.07 4.79 C10.32 1.97, 17.68 0.73, 19.8 0 C21.92 -0.73, 19.8 0.07, 19.8 0.41" stroke="#000" stroke-width="1" fill="none"></path></g><g stroke-linecap="round"><g transform="translate(243.03648167478133 128.09172786426717) rotate(373.2506353863734 -38.81393944027707 -14.138889212120446)"><path d="M-34.46 -17.81 C-34.44 -18.58, -33.46 -21.78, -34.31 -22.46 C-35.16 -23.13, -38.04 -22.96, -39.56 -21.86 C-41.09 -20.76, -42.96 -17.86, -43.46 -15.86 C-43.96 -13.86, -43.46 -11.38, -42.56 -9.86 C-41.66 -8.33, -39.44 -7.31, -38.06 -6.71 C-36.69 -6.11, -34.91 -4.41, -34.31 -6.26 C-33.71 -8.11, -34.44 -15.88, -34.46 -17.81 M-34.46 -17.81 C-34.44 -18.58, -33.46 -21.78, -34.31 -22.46 C-35.16 -23.13, -38.04 -22.96, -39.56 -21.86 C-41.09 -20.76, -42.96 -17.86, -43.46 -15.86 C-43.96 -13.86, -43.46 -11.38, -42.56 -9.86 C-41.66 -8.33, -39.44 -7.31, -38.06 -6.71 C-36.69 -6.11, -34.91 -4.41, -34.31 -6.26 C-33.71 -8.11, -34.44 -15.88, -34.46 -17.81" stroke="#000" stroke-width="1" fill="none"></path></g></g><g stroke-linecap="round"><g transform="translate(248.1983540368796 138.8526905773443) rotate(373.2506353863734 3.6880099435022657 -14.138889212120446)"><path d="M-0.56 -17.81 C-0.59 -18.58, -1.54 -21.78, -0.71 -22.46 C0.12 -23.13, 2.93 -22.96, 4.42 -21.86 C5.91 -20.76, 7.74 -17.86, 8.23 -15.86 C8.72 -13.86, 8.23 -11.38, 7.35 -9.86 C6.47 -8.33, 4.3 -7.31, 2.96 -6.71 C1.61 -6.11, -0.12 -4.41, -0.71 -6.26 C-1.29 -8.11, -0.59 -15.88, -0.56 -17.81 M-0.56 -17.81 C-0.59 -18.58, -1.54 -21.78, -0.71 -22.46 C0.12 -23.13, 2.93 -22.96, 4.42 -21.86 C5.91 -20.76, 7.74 -17.86, 8.23 -15.86 C8.72 -13.86, 8.23 -11.38, 7.35 -9.86 C6.47 -8.33, 4.3 -7.31, 2.96 -6.71 C1.61 -6.11, -0.12 -4.41, -0.71 -6.26 C-1.29 -8.11, -0.59 -15.88, -0.56 -17.81" stroke="#000" stroke-width="1" fill="none"></path></g></g><g stroke-linecap="round"><g transform="translate(209.27591868354767 201.35054447740458) rotate(373.2506353863734 22.266778335363313 -101.95693755754438)"><path d="M0 -90.18 C0.15 -92.18, -0.9 -98.66, 0.9 -102.18 C2.7 -105.71, 7.2 -109.41, 10.8 -111.33 C14.4 -113.26, 18.53 -113.73, 22.5 -113.73 C26.48 -113.73, 31.48 -112.83, 34.65 -111.33 C37.83 -109.83, 40 -106.98, 41.55 -104.73 C43.1 -102.48, 43.43 -100.06, 43.95 -97.83 C44.48 -95.61, 44.58 -92.46, 44.7 -91.38 M0 -90.18 C0.15 -92.18, -0.9 -98.66, 0.9 -102.18 C2.7 -105.71, 7.2 -109.41, 10.8 -111.33 C14.4 -113.26, 18.53 -113.73, 22.5 -113.73 C26.48 -113.73, 31.48 -112.83, 34.65 -111.33 C37.83 -109.83, 40 -106.98, 41.55 -104.73 C43.1 -102.48, 43.43 -100.06, 43.95 -97.83 C44.48 -95.61, 44.58 -92.46, 44.7 -91.38" stroke="#000" stroke-width="1" fill="none"></path></g></g><g stroke-linecap="round"><g transform="translate(203.4006020271754 122.38679626527255) rotate(373.2506353863734 8.40043511094126 4.005022189855268)"><path d="M0 0 C0.25 0.68, 0.56 2.9, 1.5 4.07 C2.44 5.24, 3.92 6.38, 5.62 7.02 C7.32 7.67, 9.84 8.2, 11.7 7.95 C13.56 7.71, 15.95 5.95, 16.8 5.55 M0 0 C0.25 0.68, 0.56 2.9, 1.5 4.07 C2.44 5.24, 3.92 6.38, 5.62 7.02 C7.32 7.67, 9.84 8.2, 11.7 7.95 C13.56 7.71, 15.95 5.95, 16.8 5.55" stroke="#000" stroke-width="1" fill="none"></path></g></g><g stroke-linecap="round" transform="translate(218.21411317829217 129.1038524265854) rotate(373.2506353863734 3.600186476117699 1.7250893531397367)"><path d="M3.6 0 C4.33 -0.02, 5.32 0.17, 5.91 0.4 C6.51 0.64, 7.01 1.06, 7.15 1.43 C7.28 1.79, 7.1 2.27, 6.72 2.59 C6.33 2.91, 5.56 3.22, 4.83 3.35 C4.11 3.47, 3.09 3.47, 2.37 3.35 C1.64 3.22, 0.87 2.91, 0.48 2.59 C0.1 2.27, -0.08 1.79, 0.05 1.43 C0.19 1.06, 0.7 0.64, 1.29 0.4 C1.88 0.17, 3.21 0.06, 3.6 0 C3.99 -0.06, 3.6 0.01, 3.6 0.03 M3.6 0 C4.33 -0.02, 5.32 0.17, 5.91 0.4 C6.51 0.64, 7.01 1.06, 7.15 1.43 C7.28 1.79, 7.1 2.27, 6.72 2.59 C6.33 2.91, 5.56 3.22, 4.83 3.35 C4.11 3.47, 3.09 3.47, 2.37 3.35 C1.64 3.22, 0.87 2.91, 0.48 2.59 C0.1 2.27, -0.08 1.79, 0.05 1.43 C0.19 1.06, 0.7 0.64, 1.29 0.4 C1.88 0.17, 3.21 0.06, 3.6 0 C3.99 -0.06, 3.6 0.01, 3.6 0.03" stroke="#000" stroke-width="1" fill="none"></path></g><g stroke-linecap="round"><g transform="translate(217.39974166747015 139.22273912305428) rotate(29.664698905619883 4.344439035360011 -24.72415668323883)"><path d="M0 -21.84 C0.11 -22.49, 0.17 -24.82, 0.64 -25.77 C1.1 -26.72, 1.77 -27.35, 2.79 -27.54 C3.81 -27.73, 5.79 -27.55, 6.78 -26.9 C7.76 -26.24, 8.37 -24.16, 8.69 -23.61 M0 -21.84 C0.11 -22.49, 0.17 -24.82, 0.64 -25.77 C1.1 -26.72, 1.77 -27.35, 2.79 -27.54 C3.81 -27.73, 5.79 -27.55, 6.78 -26.9 C7.76 -26.24, 8.37 -24.16, 8.69 -23.61" stroke="#000" stroke-width="1" fill="none"></path></g></g><g stroke-linecap="round" transform="translate(195.16956944358668 151.0074923536259) rotate(0 30.339212653434913 18.221218095065836)"><path d="M0 0 C18.81 0, 37.63 0, 60.68 0 M0 0 C13.2 0, 26.41 0, 60.68 0 M60.68 0 C60.68 10.7, 60.68 21.4, 60.68 36.44 M60.68 0 C60.68 9.09, 60.68 18.17, 60.68 36.44 M60.68 36.44 C47.94 36.44, 35.19 36.44, 0 36.44 M60.68 36.44 C40.2 36.44, 19.71 36.44, 0 36.44 M0 36.44 C0 27.45, 0 18.46, 0 0 M0 36.44 C0 24.34, 0 12.25, 0 0" stroke="#000" stroke-width="1" fill="none"></path></g><g stroke-linecap="round" transform="translate(222.76132283647615 165.5509479818789) rotate(0 3.007385510836116 3.0073855108361016)"><path d="M3.01 0 C3.62 -0.04, 4.45 0.29, 4.94 0.7 C5.43 1.12, 5.86 1.85, 5.97 2.49 C6.08 3.12, 5.93 3.95, 5.61 4.51 C5.29 5.07, 4.64 5.61, 4.04 5.83 C3.43 6.05, 2.58 6.05, 1.98 5.83 C1.37 5.61, 0.73 5.07, 0.4 4.51 C0.08 3.95, -0.07 3.12, 0.05 2.49 C0.16 1.85, 0.58 1.12, 1.07 0.7 C1.57 0.29, 2.69 0.11, 3.01 0 C3.33 -0.11, 3.01 0.01, 3.01 0.06 M3.01 0 C3.62 -0.04, 4.45 0.29, 4.94 0.7 C5.43 1.12, 5.86 1.85, 5.97 2.49 C6.08 3.12, 5.93 3.95, 5.61 4.51 C5.29 5.07, 4.64 5.61, 4.04 5.83 C3.43 6.05, 2.58 6.05, 1.98 5.83 C1.37 5.61, 0.73 5.07, 0.4 4.51 C0.08 3.95, -0.07 3.12, 0.05 2.49 C0.16 1.85, 0.58 1.12, 1.07 0.7 C1.57 0.29, 2.69 0.11, 3.01 0 C3.33 -0.11, 3.01 0.01, 3.01 0.06" stroke="#000" stroke-width="1" fill="none"></path></g><g stroke-linecap="round"><g transform="translate(271.74483587438175 141.53876396326385) rotate(362.51604909364886 -35.74043832760455 -24.72415668323883)"><path d="M-31.61 -21.84 C-31.71 -22.49, -31.78 -24.82, -32.22 -25.77 C-32.66 -26.72, -33.29 -27.35, -34.26 -27.54 C-35.23 -27.73, -37.12 -27.55, -38.05 -26.9 C-38.99 -26.24, -39.57 -24.16, -39.87 -23.61 M-31.61 -21.84 C-31.71 -22.49, -31.78 -24.82, -32.22 -25.77 C-32.66 -26.72, -33.29 -27.35, -34.26 -27.54 C-35.23 -27.73, -37.12 -27.55, -38.05 -26.9 C-38.99 -26.24, -39.57 -24.16, -39.87 -23.61" stroke="#000" stroke-width="1" fill="none"></path></g></g><g stroke-linecap="round"><g transform="translate(526.6117200552301 193.67157925603135) rotate(0 -302.46190677701253 -3.4791028864495956)"><path d="M-271.48 -4.93 C-270.07 -4.82, -264.16 -4.88, -263.03 -4.3 C-261.9 -3.71, -262.89 -1.89, -264.69 -1.41 C-266.48 -0.93, -269.57 -1.51, -273.8 -1.41 C-278.02 -1.3, -284.26 -0.86, -290.03 -0.78 C-295.8 -0.69, -300.87 -0.78, -308.42 -0.9 C-315.96 -1.03, -329.64 -0.84, -335.3 -1.53 C-340.96 -2.22, -342.01 -4.27, -342.37 -5.05 C-342.74 -5.83, -338.32 -6.02, -337.51 -6.21 M-271.48 -4.93 C-270.07 -4.82, -264.16 -4.88, -263.03 -4.3 C-261.9 -3.71, -262.89 -1.89, -264.69 -1.41 C-266.48 -0.93, -269.57 -1.51, -273.8 -1.41 C-278.02 -1.3, -284.26 -0.86, -290.03 -0.78 C-295.8 -0.69, -300.87 -0.78, -308.42 -0.9 C-315.96 -1.03, -329.64 -0.84, -335.3 -1.53 C-340.96 -2.22, -342.01 -4.27, -342.37 -5.05 C-342.74 -5.83, -338.32 -6.02, -337.51 -6.21" stroke="#000" stroke-width="1" fill="none"></path></g></g><g stroke-linecap="round"><g transform="translate(228.3779843642139 184.29919863126088) rotate(0 -4.654751349610422 -41.584905167508694)"><path d="M-22.88 -37.23 C-23.87 -37.23, -29.55 -36.29, -28.85 -37.23 C-28.15 -38.18, -21.31 -41.61, -18.7 -42.91 C-16.09 -44.22, -15.35 -45.04, -13.2 -45.07 C-11.05 -45.1, -8.91 -43.5, -5.81 -43.11 C-2.71 -42.72, 2.28 -42.09, 5.41 -42.73 C8.54 -43.37, 11.18 -46.78, 12.97 -46.96 C14.76 -47.13, 15.05 -45.32, 16.13 -43.77 C17.21 -42.23, 20.18 -38.94, 19.46 -37.69 C18.73 -36.43, 14.4 -36.41, 11.77 -36.24 C9.13 -36.08, 4.98 -36.61, 3.63 -36.69 M-22.88 -37.23 C-23.87 -37.23, -29.55 -36.29, -28.85 -37.23 C-28.15 -38.18, -21.31 -41.61, -18.7 -42.91 C-16.09 -44.22, -15.35 -45.04, -13.2 -45.07 C-11.05 -45.1, -8.91 -43.5, -5.81 -43.11 C-2.71 -42.72, 2.28 -42.09, 5.41 -42.73 C8.54 -43.37, 11.18 -46.78, 12.97 -46.96 C14.76 -47.13, 15.05 -45.32, 16.13 -43.77 C17.21 -42.23, 20.18 -38.94, 19.46 -37.69 C18.73 -36.43, 14.4 -36.41, 11.77 -36.24 C9.13 -36.08, 4.98 -36.61, 3.63 -36.69" stroke="#000" stroke-width="1" fill="none"></path></g></g><g stroke-linecap="round"><g transform="translate(278.6355881120952 163.9050981180697) rotate(0 -8.554278934240415 -70.75702654396294)"><path d="M-15.48 -65.72 C-15.53 -66.31, -15.06 -69.13, -15.74 -69.24 C-16.41 -69.35, -19.31 -67.44, -19.53 -66.4 C-19.75 -65.36, -18.17 -62.23, -17.06 -62.99 C-15.96 -63.74, -13.78 -68.32, -12.89 -70.95 C-12.01 -73.57, -11.95 -76.73, -11.76 -78.72 C-11.57 -80.71, -12.7 -82.86, -11.76 -82.89 C-10.81 -82.92, -8.41 -79.73, -6.07 -78.91 C-3.73 -78.09, 1.35 -79.03, 2.27 -77.96 C3.19 -76.89, 0.15 -75.15, -0.57 -72.46 C-1.3 -69.78, -1.27 -64.15, -2.09 -61.85 C-2.91 -59.54, -4.27 -58.75, -5.5 -58.63 C-6.73 -58.5, -9.32 -60.21, -9.48 -61.09 C-9.64 -61.97, -7.49 -63.84, -6.45 -63.93 C-5.41 -64.03, -3.76 -62.04, -3.23 -61.66 M-15.48 -65.72 C-15.53 -66.31, -15.06 -69.13, -15.74 -69.24 C-16.41 -69.35, -19.31 -67.44, -19.53 -66.4 C-19.75 -65.36, -18.17 -62.23, -17.06 -62.99 C-15.96 -63.74, -13.78 -68.32, -12.89 -70.95 C-12.01 -73.57, -11.95 -76.73, -11.76 -78.72 C-11.57 -80.71, -12.7 -82.86, -11.76 -82.89 C-10.81 -82.92, -8.41 -79.73, -6.07 -78.91 C-3.73 -78.09, 1.35 -79.03, 2.27 -77.96 C3.19 -76.89, 0.15 -75.15, -0.57 -72.46 C-1.3 -69.78, -1.27 -64.15, -2.09 -61.85 C-2.91 -59.54, -4.27 -58.75, -5.5 -58.63 C-6.73 -58.5, -9.32 -60.21, -9.48 -61.09 C-9.64 -61.97, -7.49 -63.84, -6.45 -63.93 C-5.41 -64.03, -3.76 -62.04, -3.23 -61.66" stroke="#000" stroke-width="1" fill="none"></path></g></g><g stroke-linecap="round"><g transform="translate(227.4210533242283 154.3988007328685) rotate(15.289106529619394 -38.409134920126405 -70.24572243091195)"><path d="M-34.36 -64.29 C-35.01 -64.44, -37.55 -65.75, -38.27 -65.21 C-39 -64.67, -39.19 -62.06, -38.71 -61.05 C-38.22 -60.05, -36.25 -59.08, -35.38 -59.21 C-34.51 -59.33, -33.59 -60.28, -33.49 -61.82 C-33.4 -63.37, -33.78 -65.98, -34.8 -68.45 C-35.81 -70.91, -38.15 -74.51, -39.57 -76.61 C-41 -78.72, -43.55 -80.41, -43.34 -81.08 C-43.12 -81.75, -39.5 -80.67, -38.27 -80.62 C-37.04 -80.57, -36.34 -80.74, -35.96 -80.77 M-34.36 -64.29 C-35.01 -64.44, -37.55 -65.75, -38.27 -65.21 C-39 -64.67, -39.19 -62.06, -38.71 -61.05 C-38.22 -60.05, -36.25 -59.08, -35.38 -59.21 C-34.51 -59.33, -33.59 -60.28, -33.49 -61.82 C-33.4 -63.37, -33.78 -65.98, -34.8 -68.45 C-35.81 -70.91, -38.15 -74.51, -39.57 -76.61 C-41 -78.72, -43.55 -80.41, -43.34 -81.08 C-43.12 -81.75, -39.5 -80.67, -38.27 -80.62 C-37.04 -80.57, -36.34 -80.74, -35.96 -80.77" stroke="#000" stroke-width="1" fill="none"></path></g></g><g stroke-linecap="round"><g transform="translate(202.46628486177588 189.1608028879953) rotate(0 -3.555271596963223 -77.95256062742658)"><path d="M-5.81 -68.95 C-6.06 -69.99, -7.16 -73.28, -7.32 -75.2 C-7.48 -77.13, -7.23 -78.81, -6.75 -80.51 C-6.28 -82.22, -5.65 -84.37, -4.48 -85.44 C-3.31 -86.51, -0.53 -86.7, 0.26 -86.96 M-5.81 -68.95 C-6.06 -69.99, -7.16 -73.28, -7.32 -75.2 C-7.48 -77.13, -7.23 -78.81, -6.75 -80.51 C-6.28 -82.22, -5.65 -84.37, -4.48 -85.44 C-3.31 -86.51, -0.53 -86.7, 0.26 -86.96" stroke="#000" stroke-width="1" fill="none"></path></g></g><g stroke-linecap="round"><g transform="translate(190.44076543578728 164.0208719869114) rotate(0 2.632972716488382 -58.19162584930184)"><path d="M-0.63 -51.47 C-0.65 -52.34, -1.28 -54.87, -0.79 -56.71 C-0.3 -58.54, 1.15 -61.1, 2.32 -62.47 C3.49 -63.84, 5.59 -64.51, 6.24 -64.91 M-0.63 -51.47 C-0.65 -52.34, -1.28 -54.87, -0.79 -56.71 C-0.3 -58.54, 1.15 -61.1, 2.32 -62.47 C3.49 -63.84, 5.59 -64.51, 6.24 -64.91" stroke="#000" stroke-width="1" fill="none"></path></g></g><g stroke-linecap="round"><g transform="translate(260.64302905019383 196.94195201134715) rotate(145.7534639509702 -3.555271596963223 -77.95256062742658)"><path d="M-5.81 -68.95 C-6.06 -69.99, -7.16 -73.28, -7.32 -75.2 C-7.48 -77.13, -7.23 -78.81, -6.75 -80.51 C-6.28 -82.22, -5.65 -84.37, -4.48 -85.44 C-3.31 -86.51, -0.53 -86.7, 0.26 -86.96 M-5.81 -68.95 C-6.06 -69.99, -7.16 -73.28, -7.32 -75.2 C-7.48 -77.13, -7.23 -78.81, -6.75 -80.51 C-6.28 -82.22, -5.65 -84.37, -4.48 -85.44 C-3.31 -86.51, -0.53 -86.7, 0.26 -86.96" stroke="#000" stroke-width="1" fill="none"></path></g></g><g stroke-linecap="round"><g transform="translate(262.32691881185906 173.37303082887428) rotate(132.79064988234197 2.632972716488382 -58.19162584930184)"><path d="M-0.63 -51.47 C-0.65 -52.34, -1.28 -54.87, -0.79 -56.71 C-0.3 -58.54, 1.15 -61.1, 2.32 -62.47 C3.49 -63.84, 5.59 -64.51, 6.24 -64.91 M-0.63 -51.47 C-0.65 -52.34, -1.28 -54.87, -0.79 -56.71 C-0.3 -58.54, 1.15 -61.1, 2.32 -62.47 C3.49 -63.84, 5.59 -64.51, 6.24 -64.91" stroke="#000" stroke-width="1" fill="none"></path></g></g><g stroke-linecap="round" transform="translate(206.0988877953563 331.2999515515445) rotate(0 22.95229157534368 23.734756060866772)"><path d="M22.95 0 C27.62 -0.3, 33.94 2.28, 37.71 5.55 C41.47 8.82, 44.7 14.61, 45.56 19.61 C46.41 24.62, 45.29 31.2, 42.83 35.6 C40.37 40.01, 35.42 44.3, 30.8 46.04 C26.18 47.78, 19.72 47.78, 15.1 46.04 C10.48 44.3, 5.53 40.01, 3.08 35.6 C0.62 31.2, -0.51 24.62, 0.35 19.61 C1.2 14.61, 4.43 8.82, 8.2 5.55 C11.97 2.28, 20.49 0.85, 22.95 0 C25.41 -0.85, 22.95 0.08, 22.95 0.47 M22.95 0 C27.62 -0.3, 33.94 2.28, 37.71 5.55 C41.47 8.82, 44.7 14.61, 45.56 19.61 C46.41 24.62, 45.29 31.2, 42.83 35.6 C40.37 40.01, 35.42 44.3, 30.8 46.04 C26.18 47.78, 19.72 47.78, 15.1 46.04 C10.48 44.3, 5.53 40.01, 3.08 35.6 C0.62 31.2, -0.51 24.62, 0.35 19.61 C1.2 14.61, 4.43 8.82, 8.2 5.55 C11.97 2.28, 20.49 0.85, 22.95 0 C25.41 -0.85, 22.95 0.08, 22.95 0.47" stroke="#000" stroke-width="1" fill="none"></path></g><g stroke-linecap="round" transform="translate(194.04462279841084 391.84772534476633) rotate(0 35.16759527507574 21.121063051503228)"><path d="M0 0 C17 0, 34.01 0, 70.34 0 M0 0 C21.66 0, 43.32 0, 70.34 0 M70.34 0 C70.34 12.79, 70.34 25.58, 70.34 42.24 M70.34 0 C70.34 10.68, 70.34 21.36, 70.34 42.24 M70.34 42.24 C43.59 42.24, 16.85 42.24, 0 42.24 M70.34 42.24 C47.42 42.24, 24.5 42.24, 0 42.24 M0 42.24 C0 31.66, 0 21.08, 0 0 M0 42.24 C0 30.88, 0 19.52, 0 0" stroke="#000" stroke-width="1" fill="none"></path></g><g stroke-linecap="round" transform="translate(226.0275100056375 408.70572252741636) rotate(0 3.486000697820913 3.486000697820913)"><path d="M3.49 0 C4.2 -0.04, 5.15 0.34, 5.73 0.82 C6.3 1.3, 6.79 2.15, 6.92 2.88 C7.05 3.62, 6.88 4.58, 6.5 5.23 C6.13 5.88, 5.38 6.51, 4.68 6.76 C3.98 7.02, 3 7.02, 2.29 6.76 C1.59 6.51, 0.84 5.88, 0.47 5.23 C0.09 4.58, -0.08 3.62, 0.05 2.88 C0.18 2.15, 0.67 1.3, 1.25 0.82 C1.82 0.34, 3.11 0.12, 3.49 0 C3.86 -0.12, 3.49 0.01, 3.49 0.07 M3.49 0 C4.2 -0.04, 5.15 0.34, 5.73 0.82 C6.3 1.3, 6.79 2.15, 6.92 2.88 C7.05 3.62, 6.88 4.58, 6.5 5.23 C6.13 5.88, 5.38 6.51, 4.68 6.76 C3.98 7.02, 3 7.02, 2.29 6.76 C1.59 6.51, 0.84 5.88, 0.47 5.23 C0.09 4.58, -0.08 3.62, 0.05 2.88 C0.18 2.15, 0.67 1.3, 1.25 0.82 C1.82 0.34, 3.11 0.12, 3.49 0 C3.86 -0.12, 3.49 0.01, 3.49 0.07" stroke="#000" stroke-width="1" fill="none"></path></g><g stroke-linecap="round"><g transform="translate(209.33916335643937 337.0624179424643) rotate(0 0.3418932922666613 10.58511536978179)"><path d="M0 0 C0.11 3.53, 0.57 17.64, 0.68 21.17 M0 0 C0.11 3.53, 0.57 17.64, 0.68 21.17" stroke="#000" stroke-width="1" fill="none"></path></g></g><g stroke-linecap="round"><g transform="translate(215.1913796520825 334.37833791643163) rotate(0 -0.30180503734257513 9.895487377122521)"><path d="M0 0 C-0.1 3.3, -0.5 16.49, -0.6 19.79 M0 0 C-0.1 3.3, -0.5 16.49, -0.6 19.79" stroke="#000" stroke-width="1" fill="none"></path></g></g><g stroke-linecap="round"><g transform="translate(219.2061237478963 333.51050454764254) rotate(0 0.005162683633528786 11.196077568522554)"><path d="M0 0 C0 3.73, 0.01 18.66, 0.01 22.39 M0 0 C0 3.73, 0.01 18.66, 0.01 22.39" stroke="#000" stroke-width="1" fill="none"></path></g></g><g stroke-linecap="round"><g transform="translate(222.03508472822347 327.2653999951077) rotate(0 -0.10252943228903177 14.354120520439096)"><path d="M0 0 C-0.03 4.78, -0.17 23.92, -0.21 28.71 M0 0 C-0.03 4.78, -0.17 23.92, -0.21 28.71" stroke="#000" stroke-width="1" fill="none"></path></g></g><g stroke-linecap="round"><g transform="translate(229.47899366020494 330.26107071288936) rotate(0 -0.10252943228903177 14.354120520439096)"><path d="M0 0 C-0.03 4.78, -0.17 23.92, -0.21 28.71 M0 0 C-0.03 4.78, -0.17 23.92, -0.21 28.71" stroke="#000" stroke-width="1" fill="none"></path></g></g><g stroke-linecap="round"><g transform="translate(232.36353395987499 331.98125225555634) rotate(0 -0.14663358380491331 12.157433268187276)"><path d="M0 0 C-0.05 4.05, -0.24 20.26, -0.29 24.31 M0 0 C-0.05 4.05, -0.24 20.26, -0.29 24.31" stroke="#000" stroke-width="1" fill="none"></path></g></g><g stroke-linecap="round"><g transform="translate(236.08790252820808 332.1834461679747) rotate(0 -0.16446376374560145 12.35379189398077)"><path d="M0 0 C-0.05 4.12, -0.27 20.59, -0.33 24.71 M0 0 C-0.05 4.12, -0.27 20.59, -0.33 24.71" stroke="#000" stroke-width="1" fill="none"></path></g></g><g stroke-linecap="round"><g transform="translate(241.04213126552486 332.48475926585445) rotate(0 0.5227514594591014 11.578321014455355)"><path d="M0 0 C0.17 3.86, 0.87 19.3, 1.05 23.16 M0 0 C0.17 3.86, 0.87 19.3, 1.05 23.16" stroke="#000" stroke-width="1" fill="none"></path></g></g><g stroke-linecap="round"><g transform="translate(246.59430095667062 338.48849625865796) rotate(0 -0.19656490770188384 10.891677403328742)"><path d="M0 0 C-0.07 3.63, -0.33 18.15, -0.39 21.78 M0 0 C-0.07 3.63, -0.33 18.15, -0.39 21.78" stroke="#000" stroke-width="1" fill="none"></path></g></g><g stroke-linecap="round"><g transform="translate(427.07383860878736 418.75321930597374) rotate(0 -198.5394549362315 -37.510237342116596)"><path d="M-171.46 -32.65 C-172.22 -33.41, -174.51 -35.46, -175.99 -37.18 C-177.46 -38.9, -178.28 -42.57, -180.33 -42.97 C-182.38 -43.36, -185.12 -40.49, -188.29 -39.53 C-191.46 -38.56, -195.8 -37.18, -199.33 -37.18 C-202.85 -37.18, -206.53 -38.65, -209.46 -39.53 C-212.38 -40.4, -215.07 -42.79, -216.88 -42.42 C-218.69 -42.06, -218.86 -39.01, -220.31 -37.36 C-221.77 -35.71, -225.74 -33.38, -225.62 -32.51 C-225.49 -31.65, -221.62 -32.21, -219.55 -32.17 C-217.47 -32.13, -214.23 -32.26, -213.16 -32.28 M-171.46 -32.65 C-172.22 -33.41, -174.51 -35.46, -175.99 -37.18 C-177.46 -38.9, -178.28 -42.57, -180.33 -42.97 C-182.38 -43.36, -185.12 -40.49, -188.29 -39.53 C-191.46 -38.56, -195.8 -37.18, -199.33 -37.18 C-202.85 -37.18, -206.53 -38.65, -209.46 -39.53 C-212.38 -40.4, -215.07 -42.79, -216.88 -42.42 C-218.69 -42.06, -218.86 -39.01, -220.31 -37.36 C-221.77 -35.71, -225.74 -33.38, -225.62 -32.51 C-225.49 -31.65, -221.62 -32.21, -219.55 -32.17 C-217.47 -32.13, -214.23 -32.26, -213.16 -32.28" stroke="#000" stroke-width="1" fill="none"></path></g></g><g stroke-linecap="round"><g transform="translate(243.8716501615931 443.06424852888097) rotate(0 -62.46837352533913 -69.68146551499248)"><path d="M-53.75 -60.06 C-54.22 -60.48, -56.46 -61.17, -56.54 -62.62 C-56.61 -64.07, -54.33 -66.29, -54.22 -68.77 C-54.1 -71.25, -54.02 -75.78, -55.84 -77.49 C-57.66 -79.19, -62.65 -79.69, -65.13 -79.02 C-67.61 -78.36, -69.88 -75.49, -70.73 -73.48 C-71.58 -71.47, -71.16 -68.53, -70.22 -66.98 C-69.29 -65.42, -67.02 -64.28, -65.13 -64.16 C-63.23 -64.03, -59.75 -64.93, -58.86 -66.21 C-57.97 -67.49, -59.03 -70.41, -59.79 -71.85 C-60.55 -73.28, -62.36 -75.17, -63.43 -74.82 C-64.5 -74.46, -66.34 -70.7, -66.21 -69.72 C-66.08 -68.74, -63.24 -69.05, -62.64 -68.92 M-53.75 -60.06 C-54.22 -60.48, -56.46 -61.17, -56.54 -62.62 C-56.61 -64.07, -54.33 -66.29, -54.22 -68.77 C-54.1 -71.25, -54.02 -75.78, -55.84 -77.49 C-57.66 -79.19, -62.65 -79.69, -65.13 -79.02 C-67.61 -78.36, -69.88 -75.49, -70.73 -73.48 C-71.58 -71.47, -71.16 -68.53, -70.22 -66.98 C-69.29 -65.42, -67.02 -64.28, -65.13 -64.16 C-63.23 -64.03, -59.75 -64.93, -58.86 -66.21 C-57.97 -67.49, -59.03 -70.41, -59.79 -71.85 C-60.55 -73.28, -62.36 -75.17, -63.43 -74.82 C-64.5 -74.46, -66.34 -70.7, -66.21 -69.72 C-66.08 -68.74, -63.24 -69.05, -62.64 -68.92" stroke="#000" stroke-width="1" fill="none"></path></g></g><g stroke-linecap="round"><g transform="translate(243.4742390598629 446.8652380038649) rotate(348.6802301431761 6.24861163280508 -42.13044906612595)"><path d="M-0.56 -37.79 C0.97 -39.47, 6.52 -45.84, 8.59 -47.83 C10.66 -49.82, 11.09 -49.92, 11.88 -49.73 C12.67 -49.53, 13.65 -48.06, 13.35 -46.67 C13.05 -45.27, 11.93 -43.29, 10.07 -41.36 C8.21 -39.42, 4 -36.11, 2.2 -35.06 C0.4 -34, -0.28 -34.58, -0.73 -35.04 C-1.19 -35.49, -0.59 -37.33, -0.56 -37.79 M-0.56 -37.79 C0.97 -39.47, 6.52 -45.84, 8.59 -47.83 C10.66 -49.82, 11.09 -49.92, 11.88 -49.73 C12.67 -49.53, 13.65 -48.06, 13.35 -46.67 C13.05 -45.27, 11.93 -43.29, 10.07 -41.36 C8.21 -39.42, 4 -36.11, 2.2 -35.06 C0.4 -34, -0.28 -34.58, -0.73 -35.04 C-1.19 -35.49, -0.59 -37.33, -0.56 -37.79" stroke="#000" stroke-width="1" fill="none"></path></g></g><g stroke-linecap="round"><g transform="translate(256.4579364292668 433.1338943168202) rotate(348.6802301431761 -12.87009254635845 -30.903112269545375)"><path d="M-12.49 -26.65 C-13.06 -27.2, -15.22 -28.8, -15.88 -29.96 C-16.54 -31.12, -16.72 -32.77, -16.44 -33.62 C-16.16 -34.47, -15.41 -35.49, -14.2 -35.06 C-12.99 -34.64, -10.01 -31.75, -9.18 -31.08 M-12.49 -26.65 C-13.06 -27.2, -15.22 -28.8, -15.88 -29.96 C-16.54 -31.12, -16.72 -32.77, -16.44 -33.62 C-16.16 -34.47, -15.41 -35.49, -14.2 -35.06 C-12.99 -34.64, -10.01 -31.75, -9.18 -31.08" stroke="#000" stroke-width="1" fill="none"></path></g></g><g stroke-linecap="round"><g transform="translate(265.77539603850335 436.8344077669495) rotate(168.6802301431761 -12.322667070070793 -26.92932715262799)"><path d="M-12.49 -23.11 C-13 -23.71, -14.86 -25.5, -15.52 -26.67 C-16.17 -27.83, -16.67 -29.46, -16.44 -30.08 C-16.2 -30.71, -15.49 -31.03, -14.11 -30.42 C-12.73 -29.8, -9.14 -27.07, -8.15 -26.4 M-12.49 -23.11 C-13 -23.71, -14.86 -25.5, -15.52 -26.67 C-16.17 -27.83, -16.67 -29.46, -16.44 -30.08 C-16.2 -30.71, -15.49 -31.03, -14.11 -30.42 C-12.73 -29.8, -9.14 -27.07, -8.15 -26.4" stroke="#000" stroke-width="1" fill="none"></path></g></g><g stroke-linecap="round"><g transform="translate(264.99437347776836 463.02049168408644) rotate(0 9.464255288201798 -93.68245676251013)"><path d="M0 -80.91 C0.23 -84.93, 0.46 -88.95, 0.71 -93.21 M0 -80.91 C0.19 -84.12, 0.37 -87.34, 0.71 -93.21 M0.71 -93.21 C2.65 -90.93, 4.59 -88.66, 6.15 -86.82 M0.71 -93.21 C2.82 -90.73, 4.94 -88.25, 6.15 -86.82 M6.15 -86.82 C6.01 -89.44, 5.87 -92.06, 5.44 -99.83 M6.15 -86.82 C5.92 -91.06, 5.69 -95.3, 5.44 -99.83 M5.44 -99.83 C7.05 -99.38, 8.65 -98.93, 13.01 -97.7 M5.44 -99.83 C8.22 -99.05, 11.01 -98.27, 13.01 -97.7 M13.01 -97.7 C14.4 -99.75, 15.78 -101.8, 18.93 -106.46 M13.01 -97.7 C14.7 -100.2, 16.38 -102.69, 18.93 -106.46" stroke="#000" stroke-width="1" fill="none"></path></g></g><g stroke-linecap="round"><g transform="translate(201.2582008521373 418.57532173404604) rotate(0 6.624978701741213 8.044616994971364)"><path d="M0 0 C0.94 3.12, 1.89 6.24, 3.08 10.17 M0 0 C0.97 3.2, 1.93 6.4, 3.08 10.17 M3.08 10.17 C4.03 8.97, 4.98 7.76, 7.57 4.5 M3.08 10.17 C4.62 8.23, 6.16 6.28, 7.57 4.5 M7.57 4.5 C8.9 7.21, 10.23 9.93, 13.25 16.09 M7.57 4.5 C9.66 8.75, 11.74 13.01, 13.25 16.09" stroke="#000" stroke-width="1" fill="none"></path></g></g><g stroke-linecap="round"><g transform="translate(248.07207007879754 407.6221062386669) rotate(0 0.84586781638302 0.5382795195164647)"><path d="M0 0 C0.61 0.39, 1.22 0.77, 1.69 1.08 M0 0 C0.5 0.32, 1 0.64, 1.69 1.08" stroke="#000" stroke-width="1" fill="none"></path></g></g><g stroke-linecap="round"><g transform="translate(253.3010711255281 405.9303706059004) rotate(0 -1.1534561132495753 -1.0765590390329294)"><path d="M0 0 C-0.83 -0.78, -1.67 -1.55, -2.31 -2.15 M0 0 C-0.73 -0.68, -1.46 -1.36, -2.31 -2.15" stroke="#000" stroke-width="1" fill="none"></path></g></g><g stroke-linecap="round"><g transform="translate(237.167056328135 367.8955652445081) rotate(0 -38.07379181700475 -12.815130714651985)"><path d="M-33.03 -17.07 C-33 -17.96, -31.87 -21.67, -32.86 -22.46 C-33.84 -23.24, -37.18 -23.04, -38.94 -21.76 C-40.71 -20.49, -42.89 -17.12, -43.46 -14.81 C-44.04 -12.49, -43.46 -9.62, -42.42 -7.85 C-41.38 -6.08, -38.8 -4.89, -37.2 -4.2 C-35.61 -3.5, -33.55 -1.53, -32.86 -3.68 C-32.16 -5.82, -33 -14.83, -33.03 -17.07 M-33.03 -17.07 C-33 -17.96, -31.87 -21.67, -32.86 -22.46 C-33.84 -23.24, -37.18 -23.04, -38.94 -21.76 C-40.71 -20.49, -42.89 -17.12, -43.46 -14.81 C-44.04 -12.49, -43.46 -9.62, -42.42 -7.85 C-41.38 -6.08, -38.8 -4.89, -37.2 -4.2 C-35.61 -3.5, -33.55 -1.53, -32.86 -3.68 C-32.16 -5.82, -33 -14.83, -33.03 -17.07" stroke="#000" stroke-width="1" fill="none"></path></g></g><g stroke-linecap="round"><g transform="translate(251.80022108037167 365.51587988388286) rotate(0 4.387565134650345 -12.815130714651985)"><path d="M-0.54 -17.07 C-0.57 -17.96, -1.67 -21.67, -0.71 -22.46 C0.25 -23.24, 3.51 -23.04, 5.24 -21.76 C6.96 -20.49, 9.09 -17.12, 9.65 -14.81 C10.22 -12.49, 9.65 -9.62, 8.63 -7.85 C7.62 -6.08, 5.1 -4.89, 3.54 -4.2 C1.98 -3.5, -0.03 -1.53, -0.71 -3.68 C-1.39 -5.82, -0.57 -14.83, -0.54 -17.07 M-0.54 -17.07 C-0.57 -17.96, -1.67 -21.67, -0.71 -22.46 C0.25 -23.24, 3.51 -23.04, 5.24 -21.76 C6.96 -20.49, 9.09 -17.12, 9.65 -14.81 C10.22 -12.49, 9.65 -9.62, 8.63 -7.85 C7.62 -6.08, 5.1 -4.89, 3.54 -4.2 C1.98 -3.5, -0.03 -1.53, -0.71 -3.68 C-1.39 -5.82, -0.57 -14.83, -0.54 -17.07" stroke="#000" stroke-width="1" fill="none"></path></g></g><g stroke-linecap="round"><g transform="translate(203.35244986959185 430.62738720003665) rotate(0 25.90826852065311 -97.26374123796043)"><path d="M0 -84 C0.34 -86.36, -0.06 -94.21, 2.07 -98.17 C4.2 -102.12, 8.69 -105.69, 12.78 -107.75 C16.86 -109.81, 21.99 -110.49, 26.59 -110.53 C31.2 -110.57, 36.66 -109.88, 40.42 -108 C44.18 -106.13, 47.25 -103.04, 49.15 -99.27 C51.05 -95.51, 51.37 -87.7, 51.82 -85.39 M0 -84 C0.34 -86.36, -0.06 -94.21, 2.07 -98.17 C4.2 -102.12, 8.69 -105.69, 12.78 -107.75 C16.86 -109.81, 21.99 -110.49, 26.59 -110.53 C31.2 -110.57, 36.66 -109.88, 40.42 -108 C44.18 -106.13, 47.25 -103.04, 49.15 -99.27 C51.05 -95.51, 51.37 -87.7, 51.82 -85.39" stroke="#000" stroke-width="1" fill="none"></path></g></g><g stroke-linecap="round"><g transform="translate(199.91719442903354 363.06193802656173) rotate(0 9.73733581984277 4.963320287015307)"><path d="M0 0 C0.41 0.9, 1.21 3.8, 2.44 5.41 C3.68 7.01, 5.58 9, 7.43 9.64 C9.28 10.27, 11.56 9.75, 13.56 9.22 C15.57 8.68, 18.49 6.9, 19.47 6.43 M0 0 C0.41 0.9, 1.21 3.8, 2.44 5.41 C3.68 7.01, 5.58 9, 7.43 9.64 C9.28 10.27, 11.56 9.75, 13.56 9.22 C15.57 8.68, 18.49 6.9, 19.47 6.43" stroke="#000" stroke-width="1" fill="none"></path></g></g><g stroke-linecap="round" transform="translate(220.80015683742158 368.27524941374566) rotate(0 4.173143922789762 1.9996314630034249)"><path d="M4.17 0 C5.02 -0.03, 6.17 0.19, 6.86 0.47 C7.54 0.74, 8.13 1.23, 8.28 1.65 C8.44 2.07, 8.23 2.63, 7.79 3 C7.34 3.37, 6.44 3.73, 5.6 3.88 C4.76 4.03, 3.59 4.03, 2.75 3.88 C1.91 3.73, 1.01 3.37, 0.56 3 C0.11 2.63, -0.09 2.07, 0.06 1.65 C0.22 1.23, 0.81 0.74, 1.49 0.47 C2.18 0.19, 3.73 0.07, 4.17 0 C4.62 -0.07, 4.17 0.01, 4.17 0.04 M4.17 0 C5.02 -0.03, 6.17 0.19, 6.86 0.47 C7.54 0.74, 8.13 1.23, 8.28 1.65 C8.44 2.07, 8.23 2.63, 7.79 3 C7.34 3.37, 6.44 3.73, 5.6 3.88 C4.76 4.03, 3.59 4.03, 2.75 3.88 C1.91 3.73, 1.01 3.37, 0.56 3 C0.11 2.63, -0.09 2.07, 0.06 1.65 C0.22 1.23, 0.81 0.74, 1.49 0.47 C2.18 0.19, 3.73 0.07, 4.17 0 C4.62 -0.07, 4.17 0.01, 4.17 0.04" stroke="#000" stroke-width="1" fill="none"></path></g><g stroke-linecap="round"><g transform="translate(523.5961638056576 437.6776941129315) rotate(0 -296.10988415918814 -3.553222612593288)"><path d="M-260.19 -5.51 C-258.56 -5.37, -251.71 -5.46, -250.4 -4.66 C-249.09 -3.87, -250.24 -1.4, -252.32 -0.75 C-254.4 -0.1, -257.99 -0.89, -262.88 -0.75 C-267.78 -0.61, -275.01 -0.01, -281.7 0.1 C-288.39 0.21, -294.27 0.1, -303.01 -0.07 C-311.76 -0.24, -327.61 0.02, -334.17 -0.92 C-340.74 -1.86, -341.95 -4.63, -342.37 -5.68 C-342.8 -6.74, -337.68 -6.99, -336.74 -7.25 M-260.19 -5.51 C-258.56 -5.37, -251.71 -5.46, -250.4 -4.66 C-249.09 -3.87, -250.24 -1.4, -252.32 -0.75 C-254.4 -0.1, -257.99 -0.89, -262.88 -0.75 C-267.78 -0.61, -275.01 -0.01, -281.7 0.1 C-288.39 0.21, -294.27 0.1, -303.01 -0.07 C-311.76 -0.24, -327.61 0.02, -334.17 -0.92 C-340.74 -1.86, -341.95 -4.63, -342.37 -5.68 C-342.8 -6.74, -337.68 -6.99, -336.74 -7.25" stroke="#000" stroke-width="1" fill="none"></path></g></g><g transform="translate(191.37994384765625 198.67269279297022) rotate(0 33 12.5)"><text x="0" y="18" font-family="Virgil, Segoe UI Emoji" font-size="20px" fill="#000000" text-anchor="start" style="white-space: pre;" direction="ltr">User A</text></g><g transform="translate(193.14407348632812 445.6028380566421) rotate(0 34 12.5)"><text x="0" y="18" font-family="Virgil, Segoe UI Emoji" font-size="20px" fill="#000000" text-anchor="start" style="white-space: pre;" direction="ltr">User B</text></g><g stroke-linecap="round" transform="translate(414.58010050532516 110.3035899055813) rotate(0 77.33166188993403 46.2821277897326)"><path d="M-1.95 -0.97 C34.96 -1.23, 70.11 -0.15, 155.54 -1.7 M0.2 -0.39 C55.92 -0.41, 114.63 -0.45, 155.48 -0.68 M155.47 0.5 C155.53 25.09, 153.5 52.28, 153.98 92.26 M154.05 -0.39 C155.36 32.48, 155.09 64.46, 154.06 92.98 M152.79 93.03 C119.54 94.64, 81.23 95.26, -0.83 93.09 M154.42 93.32 C95.57 93.72, 34.21 93.19, 0.93 92.64 M0.62 93.98 C-1.78 66.02, -0.47 43.17, 1.7 1.99 M0.61 92.8 C-0.22 59.86, -0.22 29.6, -0.46 0.26" stroke="#000000" stroke-width="1" fill="none"></path></g><g stroke-linecap="round"><g transform="translate(413.0341687565299 123.12631959353081) rotate(0 77.0979539585353 0.532246901592984)"><path d="M-1.17 -0.58 C24.71 -0.72, 129.33 -0.65, 155.37 -0.54 M0.42 1.72 C26.1 1.73, 128 0.76, 154.18 0.72" stroke="#000000" stroke-width="1" fill="none"></path></g></g><g stroke-linecap="round" transform="translate(420.0079521090604 115.46964689194556) rotate(0 3.0246930398772065 3.0246930398771923)"><path d="M3.02 0 C3.64 -0.04, 4.47 0.29, 4.97 0.71 C5.47 1.12, 5.89 1.86, 6 2.5 C6.12 3.14, 5.97 3.98, 5.64 4.54 C5.32 5.1, 4.67 5.65, 4.06 5.87 C3.45 6.09, 2.6 6.09, 1.99 5.87 C1.38 5.65, 0.73 5.1, 0.41 4.54 C0.08 3.98, -0.07 3.14, 0.05 2.5 C0.16 1.86, 0.58 1.12, 1.08 0.71 C1.58 0.29, 2.7 0.11, 3.02 0 C3.35 -0.11, 3.02 0.01, 3.02 0.06 M3.02 0 C3.64 -0.04, 4.47 0.29, 4.97 0.71 C5.47 1.12, 5.89 1.86, 6 2.5 C6.12 3.14, 5.97 3.98, 5.64 4.54 C5.32 5.1, 4.67 5.65, 4.06 5.87 C3.45 6.09, 2.6 6.09, 1.99 5.87 C1.38 5.65, 0.73 5.1, 0.41 4.54 C0.08 3.98, -0.07 3.14, 0.05 2.5 C0.16 1.86, 0.58 1.12, 1.08 0.71 C1.58 0.29, 2.7 0.11, 3.02 0 C3.35 -0.11, 3.02 0.01, 3.02 0.06" stroke="none" stroke-width="0" fill="#fa5252"></path><path d="M3.02 0 C3.64 -0.04, 4.47 0.29, 4.97 0.71 C5.47 1.12, 5.89 1.86, 6 2.5 C6.12 3.14, 5.97 3.98, 5.64 4.54 C5.32 5.1, 4.67 5.65, 4.06 5.87 C3.45 6.09, 2.6 6.09, 1.99 5.87 C1.38 5.65, 0.73 5.1, 0.41 4.54 C0.08 3.98, -0.07 3.14, 0.05 2.5 C0.16 1.86, 0.58 1.12, 1.08 0.71 C1.58 0.29, 2.7 0.11, 3.02 0 C3.35 -0.11, 3.02 0.01, 3.02 0.06 M3.02 0 C3.64 -0.04, 4.47 0.29, 4.97 0.71 C5.47 1.12, 5.89 1.86, 6 2.5 C6.12 3.14, 5.97 3.98, 5.64 4.54 C5.32 5.1, 4.67 5.65, 4.06 5.87 C3.45 6.09, 2.6 6.09, 1.99 5.87 C1.38 5.65, 0.73 5.1, 0.41 4.54 C0.08 3.98, -0.07 3.14, 0.05 2.5 C0.16 1.86, 0.58 1.12, 1.08 0.71 C1.58 0.29, 2.7 0.11, 3.02 0 C3.35 -0.11, 3.02 0.01, 3.02 0.06" stroke="#000000" stroke-width="1" fill="none"></path></g><g stroke-linecap="round" transform="translate(432.41970500092657 115.46964689194556) rotate(0 3.0246930398772065 3.0246930398771923)"><path d="M3.02 0 C3.64 -0.04, 4.47 0.29, 4.97 0.71 C5.47 1.12, 5.89 1.86, 6 2.5 C6.12 3.14, 5.97 3.98, 5.64 4.54 C5.32 5.1, 4.67 5.65, 4.06 5.87 C3.45 6.09, 2.6 6.09, 1.99 5.87 C1.38 5.65, 0.73 5.1, 0.41 4.54 C0.08 3.98, -0.07 3.14, 0.05 2.5 C0.16 1.86, 0.58 1.12, 1.08 0.71 C1.58 0.29, 2.7 0.11, 3.02 0 C3.35 -0.11, 3.02 0.01, 3.02 0.06 M3.02 0 C3.64 -0.04, 4.47 0.29, 4.97 0.71 C5.47 1.12, 5.89 1.86, 6 2.5 C6.12 3.14, 5.97 3.98, 5.64 4.54 C5.32 5.1, 4.67 5.65, 4.06 5.87 C3.45 6.09, 2.6 6.09, 1.99 5.87 C1.38 5.65, 0.73 5.1, 0.41 4.54 C0.08 3.98, -0.07 3.14, 0.05 2.5 C0.16 1.86, 0.58 1.12, 1.08 0.71 C1.58 0.29, 2.7 0.11, 3.02 0 C3.35 -0.11, 3.02 0.01, 3.02 0.06" stroke="none" stroke-width="0" fill="#fab005"></path><path d="M3.02 0 C3.64 -0.04, 4.47 0.29, 4.97 0.71 C5.47 1.12, 5.89 1.86, 6 2.5 C6.12 3.14, 5.97 3.98, 5.64 4.54 C5.32 5.1, 4.67 5.65, 4.06 5.87 C3.45 6.09, 2.6 6.09, 1.99 5.87 C1.38 5.65, 0.73 5.1, 0.41 4.54 C0.08 3.98, -0.07 3.14, 0.05 2.5 C0.16 1.86, 0.58 1.12, 1.08 0.71 C1.58 0.29, 2.7 0.11, 3.02 0 C3.35 -0.11, 3.02 0.01, 3.02 0.06 M3.02 0 C3.64 -0.04, 4.47 0.29, 4.97 0.71 C5.47 1.12, 5.89 1.86, 6 2.5 C6.12 3.14, 5.97 3.98, 5.64 4.54 C5.32 5.1, 4.67 5.65, 4.06 5.87 C3.45 6.09, 2.6 6.09, 1.99 5.87 C1.38 5.65, 0.73 5.1, 0.41 4.54 C0.08 3.98, -0.07 3.14, 0.05 2.5 C0.16 1.86, 0.58 1.12, 1.08 0.71 C1.58 0.29, 2.7 0.11, 3.02 0 C3.35 -0.11, 3.02 0.01, 3.02 0.06" stroke="#000000" stroke-width="1" fill="none"></path></g><g stroke-linecap="round" transform="translate(445.3765622162018 116.01475121535475) rotate(0 3.0246930398772065 3.0246930398771923)"><path d="M3.02 0 C3.64 -0.04, 4.47 0.29, 4.97 0.71 C5.47 1.12, 5.89 1.86, 6 2.5 C6.12 3.14, 5.97 3.98, 5.64 4.54 C5.32 5.1, 4.67 5.65, 4.06 5.87 C3.45 6.09, 2.6 6.09, 1.99 5.87 C1.38 5.65, 0.73 5.1, 0.41 4.54 C0.08 3.98, -0.07 3.14, 0.05 2.5 C0.16 1.86, 0.58 1.12, 1.08 0.71 C1.58 0.29, 2.7 0.11, 3.02 0 C3.35 -0.11, 3.02 0.01, 3.02 0.06 M3.02 0 C3.64 -0.04, 4.47 0.29, 4.97 0.71 C5.47 1.12, 5.89 1.86, 6 2.5 C6.12 3.14, 5.97 3.98, 5.64 4.54 C5.32 5.1, 4.67 5.65, 4.06 5.87 C3.45 6.09, 2.6 6.09, 1.99 5.87 C1.38 5.65, 0.73 5.1, 0.41 4.54 C0.08 3.98, -0.07 3.14, 0.05 2.5 C0.16 1.86, 0.58 1.12, 1.08 0.71 C1.58 0.29, 2.7 0.11, 3.02 0 C3.35 -0.11, 3.02 0.01, 3.02 0.06" stroke="none" stroke-width="0" fill="#40c057"></path><path d="M3.02 0 C3.64 -0.04, 4.47 0.29, 4.97 0.71 C5.47 1.12, 5.89 1.86, 6 2.5 C6.12 3.14, 5.97 3.98, 5.64 4.54 C5.32 5.1, 4.67 5.65, 4.06 5.87 C3.45 6.09, 2.6 6.09, 1.99 5.87 C1.38 5.65, 0.73 5.1, 0.41 4.54 C0.08 3.98, -0.07 3.14, 0.05 2.5 C0.16 1.86, 0.58 1.12, 1.08 0.71 C1.58 0.29, 2.7 0.11, 3.02 0 C3.35 -0.11, 3.02 0.01, 3.02 0.06 M3.02 0 C3.64 -0.04, 4.47 0.29, 4.97 0.71 C5.47 1.12, 5.89 1.86, 6 2.5 C6.12 3.14, 5.97 3.98, 5.64 4.54 C5.32 5.1, 4.67 5.65, 4.06 5.87 C3.45 6.09, 2.6 6.09, 1.99 5.87 C1.38 5.65, 0.73 5.1, 0.41 4.54 C0.08 3.98, -0.07 3.14, 0.05 2.5 C0.16 1.86, 0.58 1.12, 1.08 0.71 C1.58 0.29, 2.7 0.11, 3.02 0 C3.35 -0.11, 3.02 0.01, 3.02 0.06" stroke="#000000" stroke-width="1" fill="none"></path></g><g stroke-opacity="0.9" fill-opacity="0.9" stroke-linecap="round" transform="translate(464.7597665820015 135.4285630626523) rotate(0 25.833008837521618 25.83300883752159)"><path d="M27.82 0.33 C33.25 0, 40.08 2.43, 43.9 6.11 C47.72 9.79, 50.04 16.68, 50.75 22.4 C51.46 28.13, 50.85 35.71, 48.18 40.46 C45.51 45.21, 40.15 49.28, 34.71 50.88 C29.28 52.48, 20.78 52.17, 15.59 50.04 C10.41 47.91, 6.19 43.18, 3.58 38.1 C0.97 33.03, -1.03 24.87, -0.07 19.57 C0.89 14.27, 3.77 9.28, 9.36 6.28 C14.95 3.28, 28.33 1.87, 33.45 1.55 C38.56 1.23, 39.98 3.95, 40.06 4.36 M23.18 -0.05 C28.3 -0.51, 35.85 2.77, 40.33 6 C44.81 9.23, 48.52 13.87, 50.04 19.33 C51.56 24.79, 51.77 33.71, 49.44 38.78 C47.12 43.85, 41.16 47.84, 36.11 49.76 C31.05 51.69, 24.26 52.18, 19.11 50.33 C13.96 48.48, 8.31 43.12, 5.2 38.64 C2.08 34.15, -0.05 28.78, 0.4 23.42 C0.86 18.06, 4.05 10.19, 7.95 6.46 C11.84 2.74, 20.87 2.17, 23.79 1.09 C26.71 0.01, 25.41 -0.06, 25.47 -0.04" stroke="none" stroke-width="0" fill="#04aaf7"></path><path d="M32.3 1.49 C37.68 2.14, 43.48 5.35, 46.56 9.76 C49.63 14.16, 50.85 22.19, 50.73 27.93 C50.61 33.67, 49.29 40.4, 45.84 44.21 C42.38 48.01, 35.66 50.14, 29.98 50.77 C24.3 51.4, 16.65 50.8, 11.77 48 C6.9 45.2, 2.3 39.27, 0.71 33.96 C-0.88 28.65, 0.14 21.46, 2.24 16.15 C4.33 10.85, 7.98 4.64, 13.26 2.13 C18.53 -0.39, 30.03 0.84, 33.9 1.06 C37.78 1.28, 36.48 2.98, 36.51 3.45 M18.12 0.85 C23.03 -1.21, 29.89 -0.97, 35.1 1.04 C40.3 3.06, 46.63 7.73, 49.35 12.94 C52.07 18.15, 52.93 26.67, 51.4 32.29 C49.87 37.91, 44.41 43.29, 40.19 46.65 C35.96 50.02, 31.3 52.57, 26.04 52.5 C20.77 52.42, 13 50.04, 8.59 46.23 C4.19 42.42, 0.14 35.48, -0.4 29.64 C-0.94 23.8, 2.22 15.99, 5.33 11.19 C8.43 6.39, 15.9 2.24, 18.23 0.84 C20.57 -0.57, 18.99 2.52, 19.32 2.78" stroke="#000000" stroke-width="1" fill="none"></path></g><g stroke-linecap="round"><g transform="translate(493.8594522625925 153.73706377957922) rotate(0 -0.5441784957497475 9.150083057517605)" fill-rule="evenodd"><path d="M3.65 1.31 L1.43 0.81 L-5.51 -6.27 L-8.14 -6.06 L-10.09 -3.94 L-11.23 -0.07 L-11.6 4.18 L-9.98 9.46 L-17.42 12.06 L-18.12 15.12 L-17.16 17.81 L-14.5 18.29 L-11.32 17.46 L-6.87 12.78 L-0.73 22.92 L1.85 24.75 L3.15 23.29 L-0.44 10.45 L-0.92 7.12 L0.01 5.83 L5.33 6.57 L7.47 8.41 L11.16 8.92 L14.82 8.41 L16.72 5.21 L16.71 2.08 L8.75 2.66 L10.28 -5.65 L8.76 -6.26 L6.64 -5.15 L3.36 0.2 L3.65 1.31" stroke="none" stroke-width="0" fill="#40c057" fill-rule="evenodd"></path><path d="M3.65 1.31 C3.28 1.23, 2.96 2.08, 1.43 0.81 C-0.09 -0.45, -3.59 -5.48, -5.51 -6.27 C-7.43 -7.06, -9.07 -5.69, -10.09 -3.94 C-11.1 -2.2, -11.62 1.95, -11.6 4.18 C-11.59 6.42, -9.01 8.15, -9.98 9.46 C-10.95 10.78, -16.23 10.67, -17.42 12.06 C-18.62 13.45, -18.17 16.91, -17.16 17.81 C-16.14 18.71, -13.04 18.3, -11.32 17.46 C-9.61 16.62, -8.63 11.87, -6.87 12.78 C-5.1 13.69, -2.4 21.17, -0.73 22.92 C0.94 24.67, 3.18 25.92, 3.15 23.29 C3.11 20.65, -1.28 9.91, -0.92 7.12 C-0.56 4.33, 3.93 6.36, 5.33 6.57 C6.72 6.79, 5.89 8.1, 7.47 8.41 C9.06 8.72, 13.28 9.46, 14.82 8.41 C16.36 7.35, 17.72 3.04, 16.71 2.08 C15.7 1.12, 9.83 3.95, 8.75 2.66 C7.68 1.37, 10.64 -4.35, 10.28 -5.65 C9.93 -6.95, 7.79 -6.13, 6.64 -5.15 C5.49 -4.18, 3.86 -0.88, 3.36 0.2 C2.86 1.27, 3.6 1.13, 3.65 1.31 M3.65 1.31 C3.28 1.23, 2.96 2.08, 1.43 0.81 C-0.09 -0.45, -3.59 -5.48, -5.51 -6.27 C-7.43 -7.06, -9.07 -5.69, -10.09 -3.94 C-11.1 -2.2, -11.62 1.95, -11.6 4.18 C-11.59 6.42, -9.01 8.15, -9.98 9.46 C-10.95 10.78, -16.23 10.67, -17.42 12.06 C-18.62 13.45, -18.17 16.91, -17.16 17.81 C-16.14 18.71, -13.04 18.3, -11.32 17.46 C-9.61 16.62, -8.63 11.87, -6.87 12.78 C-5.1 13.69, -2.4 21.17, -0.73 22.92 C0.94 24.67, 3.18 25.92, 3.15 23.29 C3.11 20.65, -1.28 9.91, -0.92 7.12 C-0.56 4.33, 3.93 6.36, 5.33 6.57 C6.72 6.79, 5.89 8.1, 7.47 8.41 C9.06 8.72, 13.28 9.46, 14.82 8.41 C16.36 7.35, 17.72 3.04, 16.71 2.08 C15.7 1.12, 9.83 3.95, 8.75 2.66 C7.68 1.37, 10.64 -4.35, 10.28 -5.65 C9.93 -6.95, 7.79 -6.13, 6.64 -5.15 C5.49 -4.18, 3.86 -0.88, 3.36 0.2 C2.86 1.27, 3.6 1.13, 3.65 1.31" stroke="#087f5b" stroke-width="1" fill="none"></path></g></g><g stroke-linecap="round"><g stroke-opacity="0.9" fill-opacity="0.9" transform="translate(465.9035996719034 160.56714838031527) rotate(0 25.532197407383535 0.016906565884127644)"><path d="M0.53 -1.02 C9.28 -0.87, 43.15 0.79, 51.72 1 M-0.65 1.06 C8.08 0.88, 42.46 -0.7, 51.2 -0.6" stroke="#000000" stroke-width="1" fill="none"></path></g></g><g stroke-linecap="round"><g stroke-opacity="0.9" fill-opacity="0.9" transform="translate(472.202917159799 142.05960428953836) rotate(0 17.729031663718047 3.2327639835885407)"><path d="M0 0.05 C0.16 0.51, 0.11 1.96, 0.93 2.81 C1.76 3.65, 3.4 4.5, 4.96 5.12 C6.53 5.74, 8.03 6.26, 10.32 6.52 C12.62 6.77, 15.69 6.77, 18.72 6.64 C21.76 6.52, 25.94 6.44, 28.52 5.75 C31.11 5.07, 33.09 3.52, 34.25 2.51 C35.4 1.51, 35.26 0.2, 35.46 -0.26 M0 0.05 C0.16 0.51, 0.11 1.96, 0.93 2.81 C1.76 3.65, 3.4 4.5, 4.96 5.12 C6.53 5.74, 8.03 6.26, 10.32 6.52 C12.62 6.77, 15.69 6.77, 18.72 6.64 C21.76 6.52, 25.94 6.44, 28.52 5.75 C31.11 5.07, 33.09 3.52, 34.25 2.51 C35.4 1.51, 35.26 0.2, 35.46 -0.26" stroke="#000000" stroke-width="1" fill="none"></path></g></g><g stroke-opacity="0.9" fill-opacity="0.9" stroke-linecap="round" transform="translate(481.96754977003843 133.7565251032588) rotate(0 9.390081461041348 27.10415455583805)"><path d="M12.43 3.44 C14.35 5.65, 17.73 11.49, 18.88 16.47 C20.02 21.46, 19.99 27.83, 19.29 33.37 C18.58 38.9, 16.52 46.15, 14.66 49.67 C12.79 53.2, 10.06 55.03, 8.12 54.51 C6.18 54, 4.48 50.86, 3.02 46.57 C1.56 42.27, -0.37 34.65, -0.65 28.77 C-0.93 22.88, 0.12 15.83, 1.36 11.27 C2.6 6.72, 4.29 2.18, 6.78 1.45 C9.28 0.71, 14.7 5, 16.33 6.88 C17.97 8.76, 16.82 12.4, 16.6 12.74 M8.9 -0.74 C10.93 -1.43, 13.52 1.93, 14.87 5.33 C16.21 8.72, 16.23 14.06, 16.97 19.61 C17.72 25.16, 19.84 33.12, 19.31 38.62 C18.79 44.12, 15.92 50.07, 13.81 52.61 C11.69 55.16, 8.4 55.57, 6.62 53.89 C4.85 52.22, 4.24 47.33, 3.17 42.55 C2.11 37.78, 0.14 30.72, 0.22 25.23 C0.31 19.75, 2.1 14.02, 3.68 9.64 C5.25 5.26, 8.81 0.19, 9.68 -1.06 C10.56 -2.31, 9.12 1.54, 8.92 2.13" stroke="#000000" stroke-width="1" fill="none"></path></g><g stroke-linecap="round"><g stroke-opacity="0.9" fill-opacity="0.9" transform="translate(474.03631618028885 179.3196416776887) rotate(0 17.729031663718047 -2.102739326591262)"><path d="M0 1.18 C0.83 0.31, 3.24 -2.94, 4.96 -4.05 C6.68 -5.16, 8.03 -5.23, 10.32 -5.49 C12.62 -5.76, 15.69 -5.76, 18.72 -5.63 C21.76 -5.49, 25.94 -5.42, 28.52 -4.71 C31.11 -3.99, 33.09 -2.4, 34.25 -1.36 C35.4 -0.33, 35.26 1.03, 35.46 1.51 M0 1.18 C0.83 0.31, 3.24 -2.94, 4.96 -4.05 C6.68 -5.16, 8.03 -5.23, 10.32 -5.49 C12.62 -5.76, 15.69 -5.76, 18.72 -5.63 C21.76 -5.49, 25.94 -5.42, 28.52 -4.71 C31.11 -3.99, 33.09 -2.4, 34.25 -1.36 C35.4 -0.33, 35.26 1.03, 35.46 1.51" stroke="#000000" stroke-width="1" fill="none"></path></g></g><g stroke-linecap="round" transform="translate(412.4233291309481 341.022248352847) rotate(0 77.33166188993403 46.28212778973261)"><path d="M-1.4 -0.12 C51.27 -0.24, 104.94 1.72, 153.52 1.33 M0.92 -0.06 C56.18 0.82, 111.65 0.99, 155.42 0.27 M152.92 -0.66 C154.8 36.18, 154.57 70.16, 154.4 93.79 M155.03 0.92 C154.29 32.79, 154.56 66.71, 155.56 93 M152.71 90.96 C121.26 91.2, 86.39 91.82, 1.55 94.32 M155.1 93.28 C112.49 90.78, 71.01 91.21, 0.2 92.8 M-1.01 91.51 C-0.43 73.7, -0.85 51.71, 0.3 -1.03 M0.22 92.67 C0.35 58.23, -0.32 25.38, -0.11 -0.5" stroke="#000000" stroke-width="1" fill="none"></path></g><g stroke-linecap="round"><g transform="translate(410.8773973821528 353.8449780407965) rotate(0 78.05576818612008 -0.5320486406609461)"><path d="M-0.84 -0.07 C24.86 -0.06, 128.78 -1, 154.79 -0.95 M0.92 -1.16 C26.93 -0.93, 131.43 -0.38, 156.95 0.09" stroke="#000000" stroke-width="1" fill="none"></path></g></g><g stroke-linecap="round" transform="translate(417.85118073468334 346.18830533921124) rotate(0 3.0246930398772065 3.0246930398772065)"><path d="M3.02 0 C3.64 -0.04, 4.47 0.29, 4.97 0.71 C5.47 1.12, 5.89 1.86, 6 2.5 C6.12 3.14, 5.97 3.98, 5.64 4.54 C5.32 5.1, 4.67 5.65, 4.06 5.87 C3.45 6.09, 2.6 6.09, 1.99 5.87 C1.38 5.65, 0.73 5.1, 0.41 4.54 C0.08 3.98, -0.07 3.14, 0.05 2.5 C0.16 1.86, 0.58 1.12, 1.08 0.71 C1.58 0.29, 2.7 0.11, 3.02 0 C3.35 -0.11, 3.02 0.01, 3.02 0.06 M3.02 0 C3.64 -0.04, 4.47 0.29, 4.97 0.71 C5.47 1.12, 5.89 1.86, 6 2.5 C6.12 3.14, 5.97 3.98, 5.64 4.54 C5.32 5.1, 4.67 5.65, 4.06 5.87 C3.45 6.09, 2.6 6.09, 1.99 5.87 C1.38 5.65, 0.73 5.1, 0.41 4.54 C0.08 3.98, -0.07 3.14, 0.05 2.5 C0.16 1.86, 0.58 1.12, 1.08 0.71 C1.58 0.29, 2.7 0.11, 3.02 0 C3.35 -0.11, 3.02 0.01, 3.02 0.06" stroke="none" stroke-width="0" fill="#fa5252"></path><path d="M3.02 0 C3.64 -0.04, 4.47 0.29, 4.97 0.71 C5.47 1.12, 5.89 1.86, 6 2.5 C6.12 3.14, 5.97 3.98, 5.64 4.54 C5.32 5.1, 4.67 5.65, 4.06 5.87 C3.45 6.09, 2.6 6.09, 1.99 5.87 C1.38 5.65, 0.73 5.1, 0.41 4.54 C0.08 3.98, -0.07 3.14, 0.05 2.5 C0.16 1.86, 0.58 1.12, 1.08 0.71 C1.58 0.29, 2.7 0.11, 3.02 0 C3.35 -0.11, 3.02 0.01, 3.02 0.06 M3.02 0 C3.64 -0.04, 4.47 0.29, 4.97 0.71 C5.47 1.12, 5.89 1.86, 6 2.5 C6.12 3.14, 5.97 3.98, 5.64 4.54 C5.32 5.1, 4.67 5.65, 4.06 5.87 C3.45 6.09, 2.6 6.09, 1.99 5.87 C1.38 5.65, 0.73 5.1, 0.41 4.54 C0.08 3.98, -0.07 3.14, 0.05 2.5 C0.16 1.86, 0.58 1.12, 1.08 0.71 C1.58 0.29, 2.7 0.11, 3.02 0 C3.35 -0.11, 3.02 0.01, 3.02 0.06" stroke="#000000" stroke-width="1" fill="none"></path></g><g stroke-linecap="round" transform="translate(430.2629336265493 346.18830533921124) rotate(0 3.0246930398772065 3.0246930398772065)"><path d="M3.02 0 C3.64 -0.04, 4.47 0.29, 4.97 0.71 C5.47 1.12, 5.89 1.86, 6 2.5 C6.12 3.14, 5.97 3.98, 5.64 4.54 C5.32 5.1, 4.67 5.65, 4.06 5.87 C3.45 6.09, 2.6 6.09, 1.99 5.87 C1.38 5.65, 0.73 5.1, 0.41 4.54 C0.08 3.98, -0.07 3.14, 0.05 2.5 C0.16 1.86, 0.58 1.12, 1.08 0.71 C1.58 0.29, 2.7 0.11, 3.02 0 C3.35 -0.11, 3.02 0.01, 3.02 0.06 M3.02 0 C3.64 -0.04, 4.47 0.29, 4.97 0.71 C5.47 1.12, 5.89 1.86, 6 2.5 C6.12 3.14, 5.97 3.98, 5.64 4.54 C5.32 5.1, 4.67 5.65, 4.06 5.87 C3.45 6.09, 2.6 6.09, 1.99 5.87 C1.38 5.65, 0.73 5.1, 0.41 4.54 C0.08 3.98, -0.07 3.14, 0.05 2.5 C0.16 1.86, 0.58 1.12, 1.08 0.71 C1.58 0.29, 2.7 0.11, 3.02 0 C3.35 -0.11, 3.02 0.01, 3.02 0.06" stroke="none" stroke-width="0" fill="#fab005"></path><path d="M3.02 0 C3.64 -0.04, 4.47 0.29, 4.97 0.71 C5.47 1.12, 5.89 1.86, 6 2.5 C6.12 3.14, 5.97 3.98, 5.64 4.54 C5.32 5.1, 4.67 5.65, 4.06 5.87 C3.45 6.09, 2.6 6.09, 1.99 5.87 C1.38 5.65, 0.73 5.1, 0.41 4.54 C0.08 3.98, -0.07 3.14, 0.05 2.5 C0.16 1.86, 0.58 1.12, 1.08 0.71 C1.58 0.29, 2.7 0.11, 3.02 0 C3.35 -0.11, 3.02 0.01, 3.02 0.06 M3.02 0 C3.64 -0.04, 4.47 0.29, 4.97 0.71 C5.47 1.12, 5.89 1.86, 6 2.5 C6.12 3.14, 5.97 3.98, 5.64 4.54 C5.32 5.1, 4.67 5.65, 4.06 5.87 C3.45 6.09, 2.6 6.09, 1.99 5.87 C1.38 5.65, 0.73 5.1, 0.41 4.54 C0.08 3.98, -0.07 3.14, 0.05 2.5 C0.16 1.86, 0.58 1.12, 1.08 0.71 C1.58 0.29, 2.7 0.11, 3.02 0 C3.35 -0.11, 3.02 0.01, 3.02 0.06" stroke="#000000" stroke-width="1" fill="none"></path></g><g stroke-linecap="round" transform="translate(443.21979084182453 346.73340966262043) rotate(0 3.0246930398772065 3.0246930398772065)"><path d="M3.02 0 C3.64 -0.04, 4.47 0.29, 4.97 0.71 C5.47 1.12, 5.89 1.86, 6 2.5 C6.12 3.14, 5.97 3.98, 5.64 4.54 C5.32 5.1, 4.67 5.65, 4.06 5.87 C3.45 6.09, 2.6 6.09, 1.99 5.87 C1.38 5.65, 0.73 5.1, 0.41 4.54 C0.08 3.98, -0.07 3.14, 0.05 2.5 C0.16 1.86, 0.58 1.12, 1.08 0.71 C1.58 0.29, 2.7 0.11, 3.02 0 C3.35 -0.11, 3.02 0.01, 3.02 0.06 M3.02 0 C3.64 -0.04, 4.47 0.29, 4.97 0.71 C5.47 1.12, 5.89 1.86, 6 2.5 C6.12 3.14, 5.97 3.98, 5.64 4.54 C5.32 5.1, 4.67 5.65, 4.06 5.87 C3.45 6.09, 2.6 6.09, 1.99 5.87 C1.38 5.65, 0.73 5.1, 0.41 4.54 C0.08 3.98, -0.07 3.14, 0.05 2.5 C0.16 1.86, 0.58 1.12, 1.08 0.71 C1.58 0.29, 2.7 0.11, 3.02 0 C3.35 -0.11, 3.02 0.01, 3.02 0.06" stroke="none" stroke-width="0" fill="#40c057"></path><path d="M3.02 0 C3.64 -0.04, 4.47 0.29, 4.97 0.71 C5.47 1.12, 5.89 1.86, 6 2.5 C6.12 3.14, 5.97 3.98, 5.64 4.54 C5.32 5.1, 4.67 5.65, 4.06 5.87 C3.45 6.09, 2.6 6.09, 1.99 5.87 C1.38 5.65, 0.73 5.1, 0.41 4.54 C0.08 3.98, -0.07 3.14, 0.05 2.5 C0.16 1.86, 0.58 1.12, 1.08 0.71 C1.58 0.29, 2.7 0.11, 3.02 0 C3.35 -0.11, 3.02 0.01, 3.02 0.06 M3.02 0 C3.64 -0.04, 4.47 0.29, 4.97 0.71 C5.47 1.12, 5.89 1.86, 6 2.5 C6.12 3.14, 5.97 3.98, 5.64 4.54 C5.32 5.1, 4.67 5.65, 4.06 5.87 C3.45 6.09, 2.6 6.09, 1.99 5.87 C1.38 5.65, 0.73 5.1, 0.41 4.54 C0.08 3.98, -0.07 3.14, 0.05 2.5 C0.16 1.86, 0.58 1.12, 1.08 0.71 C1.58 0.29, 2.7 0.11, 3.02 0 C3.35 -0.11, 3.02 0.01, 3.02 0.06" stroke="#000000" stroke-width="1" fill="none"></path></g><g stroke-opacity="0.9" fill-opacity="0.9" stroke-linecap="round" transform="translate(462.6029952076244 366.147221509918) rotate(0 25.833008837521618 25.83300883752159)"><path d="M29.1 -0.33 C34.4 -0.03, 40.19 3.64, 44.1 7.63 C48.01 11.63, 52.11 18.02, 52.58 23.65 C53.05 29.28, 50.45 36.75, 46.9 41.41 C43.35 46.08, 36.71 50.44, 31.27 51.64 C25.83 52.84, 19.1 51.19, 14.28 48.62 C9.45 46.04, 4.47 41.26, 2.33 36.17 C0.2 31.07, -0.03 23.25, 1.47 18.05 C2.97 12.86, 6.25 7.96, 11.36 5 C16.47 2.04, 28.19 0.86, 32.13 0.3 C36.08 -0.25, 35.01 1.2, 35.04 1.69 M25.68 -0.26 C31.4 -0.55, 39.83 1.9, 44.17 5.66 C48.51 9.41, 51.03 16.87, 51.71 22.25 C52.4 27.64, 51.25 33.35, 48.28 37.98 C45.31 42.6, 39.16 48.07, 33.88 49.98 C28.6 51.88, 21.94 51.1, 16.62 49.4 C11.3 47.71, 4.63 44.44, 1.94 39.79 C-0.74 35.14, -0.59 27.27, 0.52 21.49 C1.64 15.71, 4.5 8.49, 8.62 5.1 C12.74 1.7, 22.2 2, 25.25 1.12 C28.31 0.23, 26.9 -0.58, 26.96 -0.21" stroke="none" stroke-width="0" fill="#04aaf7"></path><path d="M18.19 0.13 C23.18 -1.78, 32 -0.17, 37.11 2.11 C42.22 4.38, 46.72 8.87, 48.86 13.77 C51.01 18.67, 51.15 25.98, 49.99 31.5 C48.83 37.03, 46.07 43.58, 41.9 46.91 C37.74 50.23, 30.8 52.01, 25.02 51.47 C19.23 50.93, 11.41 47.43, 7.22 43.66 C3.02 39.88, 0.24 34.18, -0.17 28.83 C-0.59 23.48, 1.12 16.31, 4.72 11.54 C8.32 6.77, 17.95 1.94, 21.43 0.19 C24.92 -1.55, 25.4 0.71, 25.63 1.09 M30.31 -0.63 C35.54 0.46, 43.41 6.46, 47.08 10.71 C50.75 14.96, 52.38 19.79, 52.32 24.87 C52.26 29.95, 50.67 36.99, 46.73 41.2 C42.79 45.4, 34.19 48.94, 28.68 50.1 C23.17 51.26, 18.08 50.67, 13.67 48.16 C9.26 45.64, 4.03 40.01, 2.21 35.01 C0.4 30.01, 1.05 23.66, 2.78 18.14 C4.52 12.62, 8.17 4.74, 12.64 1.9 C17.11 -0.95, 26.46 1.3, 29.6 1.07 C32.74 0.85, 31.63 0.19, 31.48 0.55" stroke="#000000" stroke-width="1" fill="none"></path></g><g stroke-linecap="round"><g transform="translate(495.3514565882615 385.7690306470766) rotate(0 -4.192954195795949 7.836774637285856)" fill-rule="evenodd"><path d="M0 0 L-2.21 -0.5 L-9.16 -7.58 L-11.79 -7.37 L-13.74 -5.26 L-14.88 -1.38 L-15.25 2.87 L-13.63 8.15 L-21.07 10.75 L-21.77 13.81 L-20.81 16.5 L-18.15 16.98 L-14.97 16.15 L-10.52 11.46 L-4.38 21.61 L-1.8 23.44 L-0.5 21.97 L-4.09 9.14 L-4.57 5.81 L-3.64 4.51 L1.68 5.26 L3.82 7.1 L7.51 7.61 L11.17 7.1 L13.07 3.9 L13.06 0.77 L5.11 1.34 L6.64 -6.97 L5.11 -7.57 L2.99 -6.46 L-0.29 -1.12 L0 0" stroke="none" stroke-width="0" fill="#40c057" fill-rule="evenodd"></path><path d="M0 0 C-0.37 -0.08, -0.69 0.76, -2.21 -0.5 C-3.74 -1.77, -7.24 -6.79, -9.16 -7.58 C-11.08 -8.38, -12.72 -7, -13.74 -5.26 C-14.75 -3.52, -15.27 0.64, -15.25 2.87 C-15.23 5.11, -12.66 6.84, -13.63 8.15 C-14.6 9.46, -19.88 9.36, -21.07 10.75 C-22.27 12.14, -21.82 15.6, -20.81 16.5 C-19.79 17.4, -16.69 16.99, -14.97 16.15 C-13.26 15.31, -12.28 10.55, -10.52 11.46 C-8.75 12.37, -6.05 19.86, -4.38 21.61 C-2.71 23.36, -0.47 24.61, -0.5 21.97 C-0.53 19.34, -4.93 8.59, -4.57 5.81 C-4.21 3.02, 0.28 5.04, 1.68 5.26 C3.08 5.47, 2.24 6.79, 3.82 7.1 C5.41 7.4, 9.63 8.15, 11.17 7.1 C12.71 6.04, 14.07 1.73, 13.06 0.77 C12.05 -0.19, 6.18 2.63, 5.11 1.34 C4.03 0.05, 6.99 -5.66, 6.64 -6.97 C6.28 -8.27, 4.14 -7.44, 2.99 -6.46 C1.84 -5.49, 0.21 -2.19, -0.29 -1.12 C-0.79 -0.04, -0.05 -0.19, 0 0 M0 0 C-0.37 -0.08, -0.69 0.76, -2.21 -0.5 C-3.74 -1.77, -7.24 -6.79, -9.16 -7.58 C-11.08 -8.38, -12.72 -7, -13.74 -5.26 C-14.75 -3.52, -15.27 0.64, -15.25 2.87 C-15.23 5.11, -12.66 6.84, -13.63 8.15 C-14.6 9.46, -19.88 9.36, -21.07 10.75 C-22.27 12.14, -21.82 15.6, -20.81 16.5 C-19.79 17.4, -16.69 16.99, -14.97 16.15 C-13.26 15.31, -12.28 10.55, -10.52 11.46 C-8.75 12.37, -6.05 19.86, -4.38 21.61 C-2.71 23.36, -0.47 24.61, -0.5 21.97 C-0.53 19.34, -4.93 8.59, -4.57 5.81 C-4.21 3.02, 0.28 5.04, 1.68 5.26 C3.08 5.47, 2.24 6.79, 3.82 7.1 C5.41 7.4, 9.63 8.15, 11.17 7.1 C12.71 6.04, 14.07 1.73, 13.06 0.77 C12.05 -0.19, 6.18 2.63, 5.11 1.34 C4.03 0.05, 6.99 -5.66, 6.64 -6.97 C6.28 -8.27, 4.14 -7.44, 2.99 -6.46 C1.84 -5.49, 0.21 -2.19, -0.29 -1.12 C-0.79 -0.04, -0.05 -0.19, 0 0" stroke="#087f5b" stroke-width="1" fill="none"></path></g></g><g stroke-linecap="round"><g stroke-opacity="0.9" fill-opacity="0.9" transform="translate(463.74682829752624 391.285806827581) rotate(0 25.496437211168995 0.21403177416488006)"><path d="M-0.69 0.8 C8.03 0.69, 43.26 -0.5, 51.68 -0.45 M1.16 0.17 C9.84 0.21, 42.64 1, 51.13 0.86" stroke="#000000" stroke-width="1" fill="none"></path></g></g><g stroke-linecap="round"><g stroke-opacity="0.9" fill-opacity="0.9" transform="translate(470.0461457854219 372.8332280059111) rotate(0 17.729031663718047 3.177798714481469)"><path d="M0 0 C0.16 0.46, 0.11 1.91, 0.93 2.75 C1.76 3.6, 3.4 4.45, 4.96 5.06 C6.53 5.68, 8.03 6.21, 10.32 6.46 C12.62 6.72, 15.69 6.72, 18.72 6.59 C21.76 6.46, 25.94 6.39, 28.52 5.7 C31.11 5.01, 33.09 3.46, 34.25 2.46 C35.4 1.46, 35.26 0.15, 35.46 -0.32 M0 0 C0.16 0.46, 0.11 1.91, 0.93 2.75 C1.76 3.6, 3.4 4.45, 4.96 5.06 C6.53 5.68, 8.03 6.21, 10.32 6.46 C12.62 6.72, 15.69 6.72, 18.72 6.59 C21.76 6.46, 25.94 6.39, 28.52 5.7 C31.11 5.01, 33.09 3.46, 34.25 2.46 C35.4 1.46, 35.26 0.15, 35.46 -0.32" stroke="#000000" stroke-width="1" fill="none"></path></g></g><g stroke-opacity="0.9" fill-opacity="0.9" stroke-linecap="round" transform="translate(479.8107783956614 364.4751835505245) rotate(0 9.390081461041348 27.10415455583805)"><path d="M5.13 2.19 C6.48 -0.62, 8.58 -1.17, 10.68 0.36 C12.78 1.89, 16.24 6.63, 17.72 11.37 C19.21 16.1, 19.97 23.15, 19.58 28.76 C19.19 34.36, 16.96 40.76, 15.38 44.99 C13.79 49.23, 11.88 53.41, 10.07 54.19 C8.27 54.96, 6.23 52.92, 4.56 49.65 C2.89 46.37, 0.58 40.02, 0.06 34.53 C-0.46 29.05, 0.26 22.29, 1.41 16.72 C2.56 11.15, 5.89 3.53, 6.95 1.09 C8.02 -1.35, 8.02 1.59, 7.8 2.07 M6.8 0.53 C8.53 -2.16, 12.25 -1.74, 13.79 0.22 C15.33 2.17, 15.08 7, 16.04 12.26 C17 17.51, 19.53 25.74, 19.55 31.75 C19.57 37.76, 17.66 44.35, 16.17 48.31 C14.67 52.27, 12.79 55.83, 10.59 55.52 C8.38 55.21, 4.84 50.29, 2.95 46.46 C1.06 42.63, -0.65 38.09, -0.75 32.56 C-0.86 27.03, 1.38 18.36, 2.32 13.25 C3.25 8.15, 4.31 3.72, 4.86 1.93 C5.4 0.13, 5.25 2.29, 5.58 2.49" stroke="#000000" stroke-width="1" fill="none"></path></g><g stroke-linecap="round"><g stroke-opacity="0.9" fill-opacity="0.9" transform="translate(471.87954480591156 411.21621923200667) rotate(0 17.729031663718047 -3.2806584336435094)"><path d="M0 0 C0.83 -0.87, 3.24 -4.12, 4.96 -5.23 C6.68 -6.34, 8.03 -6.41, 10.32 -6.67 C12.62 -6.93, 15.69 -6.93, 18.72 -6.8 C21.76 -6.67, 25.94 -6.59, 28.52 -5.88 C31.11 -5.17, 33.09 -3.57, 34.25 -2.54 C35.4 -1.5, 35.26 -0.15, 35.46 0.33 M0 0 C0.83 -0.87, 3.24 -4.12, 4.96 -5.23 C6.68 -6.34, 8.03 -6.41, 10.32 -6.67 C12.62 -6.93, 15.69 -6.93, 18.72 -6.8 C21.76 -6.67, 25.94 -6.59, 28.52 -5.88 C31.11 -5.17, 33.09 -3.57, 34.25 -2.54 C35.4 -1.5, 35.26 -0.15, 35.46 0.33" stroke="#000000" stroke-width="1" fill="none"></path></g></g><g stroke-linecap="round"><g transform="translate(287.9096984863281 145.61159660156397) rotate(0 60.250396728515625 -0.251007080078125)"><path d="M0 0 C20.08 -0.08, 100.42 -0.42, 120.5 -0.5 M0 0 C20.08 -0.08, 100.42 -0.42, 120.5 -0.5" stroke="#000000" stroke-width="1" fill="none"></path></g><g transform="translate(287.9096984863281 145.61159660156397) rotate(0 60.250396728515625 -0.251007080078125)"><path d="M92.35 9.88 C103.35 5.82, 114.34 1.77, 120.5 -0.5 M92.35 9.88 C98.96 7.44, 105.56 5.01, 120.5 -0.5" stroke="#000000" stroke-width="1" fill="none"></path></g><g transform="translate(287.9096984863281 145.61159660156397) rotate(0 60.250396728515625 -0.251007080078125)"><path d="M92.27 -10.65 C103.3 -6.68, 114.32 -2.72, 120.5 -0.5 M92.27 -10.65 C98.89 -8.27, 105.51 -5.89, 120.5 -0.5" stroke="#000000" stroke-width="1" fill="none"></path></g></g><g stroke-linecap="round"><g transform="translate(276.5209655761719 399.14586784179835) rotate(0 60.949981689453125 0.65643310546875)"><path d="M0 0 C20.32 0.22, 101.58 1.09, 121.9 1.31 M0 0 C20.32 0.22, 101.58 1.09, 121.9 1.31" stroke="#000000" stroke-width="1" fill="none"></path></g><g transform="translate(276.5209655761719 399.14586784179835) rotate(0 60.949981689453125 0.65643310546875)"><path d="M93.6 11.27 C104.53 7.42, 115.46 3.58, 121.9 1.31 M93.6 11.27 C102.55 8.12, 111.5 4.97, 121.9 1.31" stroke="#000000" stroke-width="1" fill="none"></path></g><g transform="translate(276.5209655761719 399.14586784179835) rotate(0 60.949981689453125 0.65643310546875)"><path d="M93.82 -9.25 C104.67 -5.17, 115.51 -1.09, 121.9 1.31 M93.82 -9.25 C102.7 -5.91, 111.58 -2.57, 121.9 1.31" stroke="#000000" stroke-width="1" fill="none"></path></g></g><g stroke-linecap="round" transform="translate(935.7024841308594 73.6348204785171) rotate(0 233.55169677734375 186.65261840820312)"><path d="M93.33 0 M93.33 0 C193.52 0, 293.71 0, 373.78 0 M93.33 0 C149.42 0, 205.52 0, 373.78 0 M373.78 0 C435.99 0, 467.1 31.11, 467.1 93.33 M373.78 0 C435.99 0, 467.1 31.11, 467.1 93.33 M467.1 93.33 C467.1 161.97, 467.1 230.62, 467.1 279.98 M467.1 93.33 C467.1 164.51, 467.1 235.7, 467.1 279.98 M467.1 279.98 C467.1 342.2, 435.99 373.31, 373.78 373.31 M467.1 279.98 C467.1 342.2, 435.99 373.31, 373.78 373.31 M373.78 373.31 C287.2 373.31, 200.62 373.31, 93.33 373.31 M373.78 373.31 C283.84 373.31, 193.9 373.31, 93.33 373.31 M93.33 373.31 C31.11 373.31, 0 342.2, 0 279.98 M93.33 373.31 C31.11 373.31, 0 342.2, 0 279.98 M0 279.98 C0 213.73, 0 147.48, 0 93.33 M0 279.98 C0 206.6, 0 133.22, 0 93.33 M0 93.33 C0 31.11, 31.11 0, 93.33 0 M0 93.33 C0 31.11, 31.11 0, 93.33 0" stroke="#343a40" stroke-width="1" fill="none"></path></g><g transform="translate(1125.7098083496094 457.5848937207046) rotate(0 66 12.5)"><text x="0" y="18" font-family="Virgil, Segoe UI Emoji" font-size="20px" fill="#343a40" text-anchor="start" style="white-space: pre;" direction="ltr">Kyma Runtime</text></g><g stroke-linecap="round" transform="translate(162.91574096679688 46.3147521191421) rotate(0 61.377105712890625 231.4228515625)"><path d="M30.69 0 M30.69 0 C43.9 0, 57.11 0, 92.07 0 M92.07 0 C112.52 0, 122.75 10.23, 122.75 30.69 M122.75 30.69 C122.75 187.15, 122.75 343.62, 122.75 432.16 M122.75 432.16 C122.75 452.62, 112.52 462.85, 92.07 462.85 M92.07 462.85 C73.19 462.85, 54.3 462.85, 30.69 462.85 M30.69 462.85 C10.23 462.85, 0 452.62, 0 432.16 M0 432.16 C0 283.01, 0 133.87, 0 30.69 M0 30.69 C0 10.23, 10.23 0, 30.69 0" stroke="#5c940d" stroke-width="1.5" fill="none" stroke-dasharray="8 9"></path></g><g transform="translate(165.96316528320312 19.04491569336085) rotate(0 60.5 12.5)"><text x="0" y="18" font-family="Virgil, Segoe UI Emoji" font-size="20px" fill="#343a40" text-anchor="start" style="white-space: pre;" direction="ltr">Chat Room 1</text></g><g stroke-linecap="round" transform="translate(939.3412780761719 162.2631163769546) rotate(0 65.9857177734375 86.99017333984375)"><path d="M32.99 0 M32.99 0 C47.97 0, 62.94 0, 98.98 0 M32.99 0 C49.53 0, 66.06 0, 98.98 0 M98.98 0 C120.97 0, 131.97 11, 131.97 32.99 M98.98 0 C120.97 0, 131.97 11, 131.97 32.99 M131.97 32.99 C131.97 75.22, 131.97 117.45, 131.97 140.99 M131.97 32.99 C131.97 75.29, 131.97 117.58, 131.97 140.99 M131.97 140.99 C131.97 162.98, 120.97 173.98, 98.98 173.98 M131.97 140.99 C131.97 162.98, 120.97 173.98, 98.98 173.98 M98.98 173.98 C82 173.98, 65.02 173.98, 32.99 173.98 M98.98 173.98 C73.96 173.98, 48.94 173.98, 32.99 173.98 M32.99 173.98 C11 173.98, 0 162.98, 0 140.99 M32.99 173.98 C11 173.98, 0 162.98, 0 140.99 M0 140.99 C0 103.4, 0 65.81, 0 32.99 M0 140.99 C0 105.19, 0 69.39, 0 32.99 M0 32.99 C0 11, 11 0, 32.99 0 M0 32.99 C0 11, 11 0, 32.99 0" stroke="#000000" stroke-width="1" fill="none"></path></g><g transform="translate(959.2104187011719 228.30928947265772) rotate(0 44 25)"><text x="44" y="18" font-family="Virgil, Segoe UI Emoji" font-size="20px" fill="#000000" text-anchor="middle" style="white-space: pre;" direction="ltr">API </text><text x="44" y="43" font-family="Virgil, Segoe UI Emoji" font-size="20px" fill="#000000" text-anchor="middle" style="white-space: pre;" direction="ltr">Gateway</text></g><g stroke-linecap="round"><g transform="translate(569.6138000488281 155.88451530273585) rotate(0 175.54440307617188 53.99658203125)"><path d="M0 0 C51.91 0.64, 103.82 1.28, 155.81 1.92 M0 0 C31.65 0.39, 63.3 0.78, 155.81 1.92 M155.81 1.92 C161.23 38.59, 166.64 75.26, 170.42 100.81 M155.81 1.92 C160.52 33.79, 165.22 65.65, 170.42 100.81 M170.42 100.81 C224.61 102.96, 278.81 105.12, 351.09 107.99 M170.42 100.81 C230.84 103.21, 291.26 105.61, 351.09 107.99" stroke="#000000" stroke-width="1" fill="none"></path></g><g transform="translate(569.6138000488281 155.88451530273585) rotate(0 175.54440307617188 53.99658203125)"><path d="M322.51 117.13 C332.03 114.08, 341.55 111.04, 351.09 107.99 M322.51 117.13 C328.32 115.27, 334.12 113.42, 351.09 107.99" stroke="#000000" stroke-width="1" fill="none"></path></g><g transform="translate(569.6138000488281 155.88451530273585) rotate(0 175.54440307617188 53.99658203125)"><path d="M323.33 96.62 C332.58 100.41, 341.83 104.2, 351.09 107.99 M323.33 96.62 C328.97 98.93, 334.61 101.24, 351.09 107.99" stroke="#000000" stroke-width="1" fill="none"></path></g></g><g stroke-linecap="round"><g transform="translate(575.8188171386719 389.4012999707046) rotate(0 172.799560546875 -66.68272399902344)"><path d="M0 0 C46.38 -0.55, 92.77 -1.11, 164.38 -1.97 M0 0 C41.19 -0.49, 82.38 -0.98, 164.38 -1.97 M164.38 -1.97 C164.66 -45.34, 164.94 -88.72, 165.24 -133.37 M164.38 -1.97 C164.57 -31.8, 164.77 -61.64, 165.24 -133.37 M165.24 -133.37 C215.74 -130.72, 266.23 -128.08, 345.6 -123.92 M165.24 -133.37 C226.01 -130.18, 286.78 -127, 345.6 -123.92" stroke="#000000" stroke-width="1" fill="none"></path></g><g transform="translate(575.8188171386719 389.4012999707046) rotate(0 172.799560546875 -66.68272399902344)"><path d="M316.91 -115.15 C325.01 -117.63, 333.1 -120.1, 345.6 -123.92 M316.91 -115.15 C324.1 -117.35, 331.29 -119.55, 345.6 -123.92" stroke="#000000" stroke-width="1" fill="none"></path></g><g transform="translate(575.8188171386719 389.4012999707046) rotate(0 172.799560546875 -66.68272399902344)"><path d="M317.98 -135.64 C325.78 -132.34, 333.57 -129.03, 345.6 -123.92 M317.98 -135.64 C324.9 -132.71, 331.82 -129.77, 345.6 -123.92" stroke="#000000" stroke-width="1" fill="none"></path></g></g><g stroke-linecap="round" transform="translate(1244.6938171386719 178.1279845410171) rotate(0 64.3349609375 66.05836486816406)"><path d="M32.17 0 M32.17 0 C47.51 0, 62.84 0, 96.5 0 M32.17 0 C49.44 0, 66.71 0, 96.5 0 M96.5 0 C117.95 0, 128.67 10.72, 128.67 32.17 M96.5 0 C117.95 0, 128.67 10.72, 128.67 32.17 M128.67 32.17 C128.67 51.58, 128.67 70.99, 128.67 99.95 M128.67 32.17 C128.67 51.63, 128.67 71.09, 128.67 99.95 M128.67 99.95 C128.67 121.39, 117.95 132.12, 96.5 132.12 M128.67 99.95 C128.67 121.39, 117.95 132.12, 96.5 132.12 M96.5 132.12 C80.73 132.12, 64.97 132.12, 32.17 132.12 M96.5 132.12 C74 132.12, 51.49 132.12, 32.17 132.12 M32.17 132.12 C10.72 132.12, 0 121.39, 0 99.95 M32.17 132.12 C10.72 132.12, 0 121.39, 0 99.95 M0 99.95 C0 79.93, 0 59.92, 0 32.17 M0 99.95 C0 76.33, 0 52.71, 0 32.17 M0 32.17 C0 10.72, 10.72 0, 32.17 0 M0 32.17 C0 10.72, 10.72 0, 32.17 0" stroke="#000000" stroke-width="1" fill="none"></path></g><g transform="translate(1287.0840759277344 210.5286193066421) rotate(0 29.5 25)"><text x="29.5" y="18" font-family="Virgil, Segoe UI Emoji" font-size="20px" fill="#000000" text-anchor="middle" style="white-space: pre;" direction="ltr">Chat </text><text x="29.5" y="43" font-family="Virgil, Segoe UI Emoji" font-size="20px" fill="#000000" text-anchor="middle" style="white-space: pre;" direction="ltr">app</text></g><g stroke-linecap="round"><g transform="translate(1081.5121765136719 253.7018370800796) rotate(0 80.00225830078125 1.109283447265625)"><path d="M0 0 C59 0.82, 118 1.64, 160 2.22 M0 0 C33.05 0.46, 66.09 0.92, 160 2.22" stroke="#000000" stroke-width="1" fill="none"></path></g><g transform="translate(1081.5121765136719 253.7018370800796) rotate(0 80.00225830078125 1.109283447265625)"><path d="M131.67 12.09 C142.12 8.45, 152.57 4.81, 160 2.22 M131.67 12.09 C137.53 10.05, 143.38 8.01, 160 2.22" stroke="#000000" stroke-width="1" fill="none"></path></g><g transform="translate(1081.5121765136719 253.7018370800796) rotate(0 80.00225830078125 1.109283447265625)"><path d="M131.96 -8.43 C142.3 -4.5, 152.64 -0.58, 160 2.22 M131.96 -8.43 C137.75 -6.23, 143.54 -4.03, 160 2.22" stroke="#000000" stroke-width="1" fill="none"></path></g></g><g stroke-linecap="round" transform="translate(288.068603515625 10) rotate(0 65.60198057904006 31.398851491241544)"><path d="M74.48 -0.3 C85.46 0.01, 98.69 4.22, 107.41 7.83 C116.13 11.43, 123.2 16.48, 126.8 21.34 C130.41 26.2, 131.28 31.66, 129.04 36.97 C126.81 42.28, 121.06 48.97, 113.4 53.2 C105.74 57.43, 94.03 60.96, 83.08 62.37 C72.12 63.78, 58.62 63.3, 47.65 61.67 C36.68 60.03, 24.96 56.43, 17.25 52.54 C9.54 48.65, 3.41 43.72, 1.38 38.32 C-0.66 32.93, 1.06 25.33, 5.06 20.15 C9.06 14.98, 16.46 10.6, 25.37 7.28 C34.28 3.96, 49.53 1.27, 58.51 0.25 C67.49 -0.77, 75.16 0.72, 79.27 1.15 C83.38 1.57, 83.29 2.27, 83.18 2.8 M37.09 2.31 C46.36 -0.72, 59.45 -1.84, 70.48 -1.17 C81.51 -0.5, 94.01 2.96, 103.26 6.33 C112.5 9.71, 121.3 14.31, 125.94 19.09 C130.59 23.86, 132.73 29.75, 131.15 34.97 C129.57 40.2, 123.77 46.23, 116.47 50.42 C109.17 54.62, 98.29 58.34, 87.32 60.14 C76.35 61.94, 62.23 62.54, 50.65 61.22 C39.08 59.89, 25.85 55.91, 17.86 52.2 C9.86 48.48, 5.15 43.78, 2.68 38.92 C0.21 34.07, -0.09 28.45, 3.04 23.08 C6.17 17.7, 15.87 9.88, 21.47 6.66 C27.06 3.45, 34.25 4.08, 36.59 3.78 C38.94 3.49, 35.17 4.26, 35.55 4.88" stroke="#000000" stroke-width="1" fill="none"></path></g><g stroke-linecap="round"><g transform="translate(310.99516946127983 59.028025528564655) rotate(0 -10.168780092127264 9.8091950635892)" fill-rule="evenodd"><path d="M-9.68 0 L-18.26 16.56 L-18.91 19.62 L-15.83 18.48 L-10.27 14.68 L-1.5 6.47 L-1.93 4.23 L-9.68 0" stroke="none" stroke-width="0" fill="#fff" fill-rule="evenodd"></path><path d="M-9.68 0 C-11.22 3.27, -20.27 18.54, -18.91 19.62 C-17.54 20.7, -3.03 9.74, -1.5 6.47 C0.04 3.2, -8.31 1.08, -9.68 0 M-9.68 0 C-11.22 3.27, -20.27 18.54, -18.91 19.62 C-17.54 20.7, -3.03 9.74, -1.5 6.47 C0.04 3.2, -8.31 1.08, -9.68 0" stroke="#fff" stroke-width="1" fill="none"></path></g></g><g stroke-linecap="round"><g transform="translate(309.90333520929795 60.008167338294385) rotate(0 -9.02378745905824 9.659745804726391)"><path d="M-8.71 0.16 C-10.13 3.6, -18.61 19.05, -17.16 20.12 C-15.71 21.2, -3.15 9.12, 0 6.62 M-10.01 -0.81 C-11.59 2.34, -19.35 17.43, -17.87 18.35 C-16.39 19.28, -3.91 6.83, -1.11 4.75" stroke="#000000" stroke-width="1" fill="none"></path></g></g><g stroke-linecap="round" transform="translate(10.000000000000028 268.95056043739334) rotate(0 85.00514656629598 40.68572243501927)"><path d="M53.17 2.79 C64.09 0.08, 79.42 0.05, 92.53 0.67 C105.63 1.3, 120.6 3.16, 131.8 6.53 C143 9.89, 153.46 15.42, 159.73 20.85 C165.99 26.28, 169.09 32.89, 169.38 39.11 C169.67 45.33, 167.07 52.37, 161.46 58.15 C155.85 63.93, 146.24 69.9, 135.74 73.79 C125.23 77.69, 111.43 80.51, 98.44 81.53 C85.44 82.55, 70.21 82.06, 57.77 79.91 C45.34 77.76, 32.91 73.43, 23.82 68.63 C14.73 63.82, 6.98 56.94, 3.24 51.1 C-0.5 45.25, -1.41 39.59, 1.38 33.55 C4.17 27.5, 11.71 19.91, 19.99 14.81 C28.26 9.71, 42.74 5.15, 51.02 2.97 C59.31 0.79, 63.97 2.07, 69.7 1.72 C75.42 1.38, 85.31 0.4, 85.36 0.91 M86.8 -1.11 C99.29 -1.82, 113.77 0.42, 125.44 3.68 C137.1 6.93, 149.43 13.18, 156.78 18.44 C164.12 23.7, 168.24 28.83, 169.5 35.25 C170.76 41.67, 168.87 50.76, 164.32 56.95 C159.78 63.15, 152.09 68.36, 142.22 72.4 C132.35 76.45, 118.29 79.8, 105.11 81.21 C91.92 82.61, 76.02 82.73, 63.12 80.83 C50.23 78.94, 37.24 74.13, 27.73 69.84 C18.22 65.56, 10.68 60.73, 6.07 55.13 C1.46 49.53, -1.21 42.47, 0.08 36.23 C1.37 30, 6.3 22.94, 13.81 17.74 C21.32 12.54, 33.1 8.22, 45.14 5.05 C57.17 1.89, 79.11 -0.57, 86.02 -1.28 C92.93 -1.98, 86.53 0.32, 86.58 0.82 C86.63 1.31, 86.22 1.28, 86.3 1.68" stroke="#000000" stroke-width="1" fill="none"></path></g><g stroke-linecap="round"><g transform="translate(173.88826018713092 329.82883743905415) rotate(287.02878852237137 -7.583870594611966 12.710470883926291)" fill-rule="evenodd"><path d="M-6.95 0 L-18.07 21.46 L-18.91 25.42 L-14.92 23.94 L-7.71 19.02 L-0.46 13.03 L3.65 8.38 L3.09 5.48 L-6.95 0" stroke="none" stroke-width="0" fill="#fff" fill-rule="evenodd"></path><path d="M-6.95 0 C-8.94 4.24, -20.68 24.02, -18.91 25.42 C-17.14 26.82, 1.66 12.62, 3.65 8.38 C5.65 4.15, -5.18 1.4, -6.95 0 M-6.95 0 C-8.94 4.24, -20.68 24.02, -18.91 25.42 C-17.14 26.82, 1.66 12.62, 3.65 8.38 C5.65 4.15, -5.18 1.4, -6.95 0" stroke="#fff" stroke-width="1" fill="none"></path></g></g><g stroke-linecap="round"><g transform="translate(173.6882008628433 330.32775090146094) rotate(287.02878852237137 -7.665036300258606 13.453719862746993)"><path d="M-7.42 1.06 C-9.48 5.28, -19.89 24.81, -18 26.33 C-16.12 27.85, 0.05 12.72, 3.87 10.19 M-5.72 0.58 C-8.04 5.01, -20.59 22.96, -19.16 24.8 C-17.73 26.64, -1.23 14.2, 2.88 11.61" stroke="#000000" stroke-width="1" fill="none"></path></g></g><g transform="translate(319.7543548466182 20.096097977633065) rotate(0 38 20)"><text x="38" y="14" font-family="Virgil, Segoe UI Emoji" font-size="16px" fill="#000000" text-anchor="middle" style="white-space: pre;" direction="ltr">i have </text><text x="38" y="34" font-family="Virgil, Segoe UI Emoji" font-size="16px" fill="#000000" text-anchor="middle" style="white-space: pre;" direction="ltr">a CF app</text></g><g transform="translate(15.480987548828153 281.23272086914204) rotate(0 79.49999999999999 30)"><text x="79.5" y="14" font-family="Virgil, Segoe UI Emoji" font-size="16px" fill="#000000" text-anchor="middle" style="white-space: pre;" direction="ltr">Let's migrate </text><text x="79.5" y="34" font-family="Virgil, Segoe UI Emoji" font-size="16px" fill="#000000" text-anchor="middle" style="white-space: pre;" direction="ltr">it to Unified runtime</text><text x="79.5" y="54" font-family="Virgil, Segoe UI Emoji" font-size="16px" fill="#000000" text-anchor="middle" style="white-space: pre;" direction="ltr">which is Kyma </text></g></svg>